<?xml version="1.0" encoding="UTF-8"?>
<svg id="Capa_2" data-name="Capa 2" xmlns="http://www.w3.org/2000/svg" viewBox="0 0 513.7 249.68">
  <g id="Capa_1-2" data-name="Capa 1">
    <g>
      <path d="M281.24,2.74h215.27c7.66,0,14.46,6.45,14.46,14.46V232.31c0,8.01-6.8,14.45-14.46,14.45h-215.27c-8.01,0-14.45-6.44-14.45-14.45V17.2c0-8.01,6.44-14.46,14.45-14.46" fill="#fff" fill-rule="evenodd"/>
      <path d="M496.51,249.5h-215.27c-9.48,0-17.2-7.71-17.2-17.2V17.2c0-9.48,7.71-17.2,17.2-17.2h215.27c9.32,0,17.2,7.88,17.2,17.2V232.31c0,9.32-7.87,17.2-17.2,17.2M281.24,5.48c-6.46,0-11.71,5.26-11.71,11.72V232.31c0,6.46,5.26,11.71,11.71,11.71h215.27c6.35,0,11.72-5.36,11.72-11.71V17.2c0-6.35-5.36-11.72-11.72-11.72h-215.27Z" fill="#9dc452"/>
      <path d="M232.64,2.74H17.2C9.19,2.74,2.74,9.19,2.74,17.2V232.48c0,8.01,6.45,14.46,14.46,14.46H232.64c8.01,0,14.45-6.45,14.45-14.46V17.2c0-8.01-6.44-14.46-14.45-14.46" fill="#9dc452" fill-rule="evenodd"/>
      <path d="M232.64,249.68H17.2c-9.48,0-17.2-7.71-17.2-17.2V17.2C0,7.72,7.72,0,17.2,0H232.64c9.48,0,17.19,7.72,17.19,17.2V232.48c0,9.48-7.71,17.2-17.19,17.2M17.2,5.48c-6.46,0-11.72,5.26-11.72,11.72V232.48c0,6.46,5.26,11.72,11.72,11.72H232.64c6.46,0,11.71-5.25,11.71-11.72V17.2c0-6.46-5.26-11.72-11.71-11.72H17.2Z" fill="#9dc452"/>
      <path d="M35.66,64.05h3.83v15.33c0,1.74,.18,2.96,.18,3.66,.35,.87,.7,1.57,1.05,1.92,.87,.87,1.74,1.74,2.96,2.09,1.04,.69,2.27,.87,3.66,.87,2.26,0,4.01-.53,5.58-1.74,1.57-1.22,2.26-3.13,2.26-5.05v-17.07h4.01v17.07c0,3.13-1.22,5.57-3.48,7.49-2.09,1.74-4.87,2.78-8.36,2.78-2.09,0-3.83-.34-5.4-1.04-1.92-.87-3.14-1.74-4.36-3.31-.7-.69-1.22-1.57-1.57-2.79-.35-.87-.35-2.44-.35-4.53v-15.67Zm28.39,27v-17.77h3.31v2.09c1.05-.87,1.91-1.56,2.78-1.91,.87-.18,1.91-.52,2.79-.52,2.09,0,3.66,.52,4.7,1.57,1.22,1.22,1.74,2.62,1.74,4.53v12.02h-3.66v-11.15c0-1.22-.35-2.44-.87-2.96-.7-.69-1.57-1.04-2.79-1.04-1.04,0-1.91,0-2.44,.35-.69,.35-1.21,.87-2.26,1.91v12.89h-3.31Zm19.68-23.17c0-.52,0-1.21,.52-1.39,.35-.35,.69-.7,1.22-.7,.7,0,1.4,.35,1.57,.7,.35,.18,.69,.87,.69,1.39,0,.7-.34,1.05-.69,1.39-.17,.52-.87,.52-1.57,.52-.53,0-.87,0-1.22-.52-.52-.35-.52-.7-.52-1.39m0,5.4h3.66v17.77h-3.66v-17.77Zm14.11,18.11l-8.53-18.11h4.01l5.4,11.67,5.05-11.67h4.01l-8.36,18.11h-1.57Zm27.35-2.26c-1.22,.69-2.44,1.22-3.66,1.57-1.22,.35-2.44,.69-4,.69-2.79,0-4.88-1.04-6.45-2.43-1.92-1.92-2.79-4.36-2.79-7.14s.87-4.88,2.44-6.45c1.92-1.91,3.83-2.44,6.45-2.44s4.7,.52,6.27,2.44c1.57,1.57,2.09,4.01,2.09,6.79v.52h-13.24c0,1.56,.7,3.13,1.57,4,.87,1.04,2.44,1.22,4.01,1.22,1.22,0,2.44,0,3.66-.53,1.22-.34,2.44-1.04,3.66-1.91v3.66Zm-12.89-8.88h9.23c0-1.57-.52-2.44-1.22-3.31-.87-.69-1.91-1.04-3.13-1.04-1.39,0-2.44,.35-3.31,1.04-.87,.87-1.57,1.74-1.57,3.31m16.72,10.8v-17.77h3.66v3.66c.87-1.57,1.74-2.44,2.44-3.13,.87-.52,1.74-.87,2.78-.87,.53,0,1.22,0,1.74,.35,.69,.18,1.22,.87,2.26,1.22l-1.92,3.31c-.52-.69-1.22-.87-1.74-1.22-.69-.35-1.04-.35-1.57-.35-1.04,0-1.91,.35-2.43,1.22-1.05,1.05-1.4,1.92-1.57,3.48v10.1h-3.66Zm13.41-1.22v-3.66c1.22,.52,2.26,1.22,3.13,1.57,1.22,.18,1.74,.52,2.79,.52,.87,0,1.57-.35,2.09-.52,.7-.35,.87-1.04,.87-1.57,0-.69-.87-1.57-2.96-2.43-.7-.35-1.04-.7-1.22-.7-1.57-.87-2.79-1.92-3.48-2.43-.52-.88-.87-1.92-.87-3.14s.69-2.44,1.57-3.31c.87-.87,2.44-1.22,4.36-1.22,1.22,0,2.09,0,2.96,.35,1.05,0,1.91,.52,2.79,.87v3.66c-1.22-.69-2.09-1.22-3.14-1.57-.87-.35-1.74-.35-2.61-.35-.7,0-1.39,0-1.57,.35-.35,.35-.7,.69-.7,1.22,0,1.05,1.22,1.92,3.66,3.14l.35,.34c1.92,.87,3.13,1.74,3.66,2.44,.7,.52,1.05,1.57,1.05,2.78,0,1.57-.7,2.79-1.57,3.66-1.22,.87-2.79,1.57-4.87,1.57-1.05,0-2.27,0-3.14-.34-.87-.35-2.09-.7-3.13-1.22m16.02-21.94c0-.52,.35-1.21,.69-1.39,.18-.35,.87-.7,1.22-.7,.52,0,1.22,.35,1.57,.7,.17,.18,.52,.87,.52,1.39,0,.7-.35,1.05-.52,1.39-.35,.52-1.05,.52-1.57,.52-.35,0-1.04,0-1.22-.52-.35-.35-.69-.7-.69-1.39m.35,5.4h3.31v17.77h-3.31v-17.77Zm20.2,13.76v-10.1c-.17-.35-.87-.69-1.39-1.04-.69,0-1.22-.17-2.26-.17-1.74,0-2.96,.52-4.35,1.74-.88,1.05-1.4,2.44-1.4,4.7,0,1.74,.52,3.31,1.4,4.53,1.39,1.04,2.61,1.57,4.35,1.57,1.04,0,1.57,0,2.26-.35,.52-.18,1.22-.53,1.39-.87m0,3.13c-.52,.18-1.21,.52-1.74,.87-.87,.34-1.91,.34-2.79,.34-2.43,0-4.7-1.04-6.09-2.43-1.57-1.92-2.62-4.01-2.62-6.8s1.05-5.05,2.62-6.79c1.39-1.91,3.66-2.44,6.09-2.44,.87,0,1.92,0,2.44,.35,.87,0,1.56,.52,2.08,.87v-10.1h3.84v27h-3.84v-.87Zm17.07-2.79v-5.22c-2.26,.52-4.01,1.57-5.05,2.09-.87,.7-1.22,1.22-1.22,2.09,0,.69,.35,1.39,.7,1.56,.52,.7,1.22,.7,2.09,.7,.7,0,1.23,0,1.92-.35,.52-.35,.87-.52,1.57-.88m.17,2.09c-.87,.69-1.74,1.22-2.43,1.22-.87,.35-1.75,.69-2.79,.69-1.57,0-2.79-.34-3.66-1.22-.87-.69-1.22-1.91-1.22-3.13s.35-2.44,1.22-3.31c.87-1.05,2.43-1.92,4.7-2.62l4.01-1.22v-.18c0-.34,.17-.34,.17-.69,0-.87-.17-1.91-.87-2.09-.7-.69-1.56-1.04-2.44-1.04-1.22,0-2.09,.35-3.14,.7-1.21,.52-2.09,1.22-3.31,1.92v-3.49c.87-.52,2.09-1.22,2.96-1.57,1.39-.52,2.61-.52,3.83-.52,2.09,0,4.01,.35,4.88,1.57,1.22,.87,1.57,2.44,1.57,4.88v7.31c0,.69,.35,1.22,.35,1.22,0,.35,.17,.7,.52,.7,0,0,.35,0,.7-.35,.17,0,.52-.35,1.22-.88v2.44c-.69,.35-1.22,.87-2.26,1.22-.52,0-1.22,.34-1.74,.34-.7,0-1.22-.34-1.57-.69-.35,0-.69-.52-.69-1.22m20.73-2.44v-10.1c-.7-.35-1.22-.69-1.92-1.04-.52,0-1.22-.17-2.09-.17-1.57,0-3.14,.52-4.35,1.74-.88,1.05-1.57,2.44-1.57,4.7,0,1.74,.69,3.31,1.57,4.53,1.21,1.04,2.78,1.57,4.35,1.57,.87,0,1.57,0,2.09-.35,.69-.18,1.22-.53,1.92-.87m0,3.13c-1.04,.18-1.57,.52-2.26,.87-.87,.34-1.74,.34-2.79,.34-2.44,0-4.53-1.04-6.1-2.43-1.57-1.92-2.44-4.01-2.44-6.8s.87-5.05,2.44-6.79c1.57-1.91,3.66-2.44,6.1-2.44,1.04,0,1.92,0,2.79,.35,.69,0,1.22,.52,2.26,.87v-10.1h3.31v27h-3.31v-.87ZM29.91,111.07h4v27h-4v-27Zm9.23,27v-17.77h3.66v2.09c.87-.88,1.57-1.57,2.44-1.74,.87-.35,1.91-.7,3.13-.7,1.74,0,3.31,.7,4.18,1.92,1.39,.87,1.92,2.44,1.92,4.53v11.67h-3.66v-10.8c0-1.39-.35-2.79-.87-3.31-.69-.69-1.57-.86-2.79-.86-1.04,0-1.91,0-2.44,.52-.69,.34-1.22,.87-1.91,1.57v12.89h-3.66Zm31.87-4.01v-9.75c-.52-.69-1.22-1.04-1.74-1.04-.69-.17-1.22-.17-1.91-.17-1.74,0-2.96,.17-4.18,1.39-1.04,1.39-1.57,2.79-1.57,4.71s.52,3.31,1.57,4.53c1.22,1.04,2.44,1.56,4.18,1.56,.69,0,1.21,0,1.91-.17,.53,0,1.22-.35,1.74-1.05m0,3.13c-.52,.35-1.22,.53-2.09,.87-.52,.35-1.56,.35-2.44,.35-2.44,0-4.7-.87-6.09-2.44-1.91-1.92-2.44-4-2.44-6.79s.52-4.88,2.44-6.79c1.39-1.57,3.66-2.44,6.09-2.44,.88,0,1.92,0,2.44,.35,.87,.35,1.57,.52,2.09,.87v-10.1h3.83v27h-3.83v-.87Zm20.03-1.22c-.87,.87-1.74,1.57-2.78,1.74-.87,.35-1.74,.7-2.79,.7-2.09,0-3.66-.7-4.53-1.92-1.22-.87-1.92-2.44-1.92-4.18v-12.02h3.83v10.97c0,1.22,.18,2.44,.87,3.14,.52,.7,1.57,.87,2.79,.87,.87,0,1.74,0,2.43-.17,.52-.7,1.22-1.05,2.09-1.92v-12.89h3.49v17.77h-3.49v-2.09Zm6.79,.87v-3.66c.87,.52,2.09,1.22,3.14,1.57,.87,.35,1.74,.52,2.78,.52,.87,0,1.57-.17,2.09-.52,.69-.35,.69-.7,.69-1.22,0-1.04-1.04-1.91-2.79-2.78-.69-.35-1.04-.35-1.22-.7-1.92-.87-2.78-1.56-3.48-2.43-.52-.52-.88-1.74-.88-2.79,0-1.57,.35-2.78,1.57-3.66,.87-.87,2.44-1.22,4.18-1.22,1.05,0,1.92,0,2.79,.35,1.04,.35,1.91,.52,2.79,1.22v3.31c-.87-.52-1.75-1.22-2.79-1.22-.87-.35-1.74-.52-2.79-.52-.53,0-1.22,.17-1.39,.17-.69,.35-.69,.69-.69,1.22,0,1.04,1.22,1.92,3.66,3.14l.35,.35c1.91,.87,3.13,1.74,3.66,2.44,.7,.87,1.04,1.92,1.04,2.79,0,1.57-.69,3.14-1.91,4-1.22,.87-2.78,1.22-4.7,1.22-1.22,0-2.09,0-2.96-.35-1.22-.35-2.26-.52-3.14-1.22m25.78,.69c-.53,.18-1.22,.52-1.74,.52-.7,.35-1.22,.35-1.91,.35-2.09,0-3.66-.35-4.18-1.22-1.04-1.22-1.22-2.78-1.22-5.22v-8.71h-3.14v-.17l6.1-6.79h.69v4h5.4v2.96h-5.4v8.36c0,1.56,0,2.43,.17,2.78,.7,.35,1.39,.7,2.27,.7,.52,0,1.22,0,1.56-.35,.53,0,.87-.35,1.39-.7v3.48Zm3.13,.52v-17.77h3.48v4.01c.87-1.57,1.74-2.79,2.61-3.48,.7-.52,1.56-.87,2.61-.87,.52,0,1.22,.35,2.09,.35,.69,.35,1.22,.87,1.92,1.57l-1.92,2.96c-.69-.52-1.22-.87-1.57-1.22-.52,0-1.22-.35-1.74-.35-1.05,0-1.92,.69-2.62,1.22-.52,1.04-1.22,2.27-1.39,3.49v10.1h-3.48Zm14.46-22.99c0-.7,.35-1.04,.7-1.57,.17-.35,.87-.35,1.56-.35,.52,0,.87,0,1.22,.35,.52,.52,.52,.87,.52,1.57,0,.52,0,.87-.52,1.57-.35,.18-.7,.52-1.22,.52-.69,0-1.39-.35-1.56-.52-.35-.69-.7-1.04-.7-1.57m.35,5.22h3.66v17.77h-3.66v-17.77Zm16.89,14.11v-5.22c-2.43,.87-4.01,1.57-4.88,2.08-.87,.7-1.22,1.22-1.22,2.27,0,.87,0,1.22,.52,1.74,.69,.35,1.22,.7,1.92,.7,.52,0,1.22-.34,1.74-.34,.69-.35,1.39-.52,1.91-1.22m.35,2.09c-.87,.69-1.91,1.22-2.78,1.57-.7,.35-1.57,.35-2.44,.35-1.57,0-2.79-.35-3.66-1.22-1.04-.69-1.57-1.91-1.57-3.13s.52-2.43,1.57-3.31c.87-1.05,2.44-1.57,4.18-2.44l4.36-1.22v-1.05c0-.87-.34-1.74-.52-2.09-.7-.69-1.57-.69-2.79-.69-1.05,0-1.91,0-3.14,.69-.87,.35-1.91,.87-3.13,1.92v-3.83c1.04-.53,1.91-1.22,3.13-1.39,1.22-.35,2.44-.7,3.66-.7,2.27,0,4.01,.7,4.88,1.56,1.39,.88,1.57,2.44,1.57,4.88v7.32c0,.69,0,1.39,.35,1.56,0,.35,.35,.35,.69,.35,0,0,.17,0,.53-.35,.35,0,.7-.17,1.22-.52v2.09c-.87,.69-1.57,.87-2.09,1.22-.7,.35-1.22,.35-1.92,.35-.87,0-1.22,0-1.56-.35-.53-.35-.53-.87-.53-1.57m8.36-25.43h3.31v27h-3.31v-27Zm30.31,22.99v-9.75c-.53-.69-1.22-1.04-1.74-1.04-.7-.17-1.22-.17-1.91-.17-1.75,0-3.31,.17-4.36,1.39-1.22,1.39-1.39,2.79-1.39,4.71s.17,3.31,1.39,4.53c1.04,1.04,2.61,1.56,4.36,1.56,.69,0,1.21,0,1.91-.17,.52,0,1.21-.35,1.74-1.05m0,3.13c-.53,.35-1.39,.53-2.09,.87-.7,.35-1.56,.35-2.44,.35-2.79,0-4.71-.87-6.45-2.44-1.57-1.92-2.44-4-2.44-6.79s.87-4.88,2.44-6.79c1.74-1.57,3.66-2.44,6.45-2.44,.87,0,1.56,0,2.44,.35,.7,.35,1.56,.52,2.09,.87v-10.1h3.48v27h-3.48v-.87Zm23.69-.87c-1.22,.52-2.44,1.22-3.66,1.39-1.22,.7-2.44,.7-3.65,.7-2.79,0-5.22-.7-6.79-2.44-1.75-1.92-2.44-4-2.44-7.14,0-2.79,.7-4.88,2.09-6.44,1.92-1.57,4.01-2.44,6.44-2.44,2.61,0,4.71,.87,6.27,2.44,1.56,1.91,2.08,4,2.08,6.79v.52h-13.23c0,1.92,.69,3.14,1.56,4.01,.88,1.04,2.44,1.56,4.01,1.56,1.22,0,2.43-.17,3.65-.52,1.22-.7,2.44-1.22,3.66-2.27v3.83Zm-12.89-9.06h9.23c0-1.22-.34-2.44-1.22-2.96-.87-1.04-1.74-1.21-3.13-1.21s-2.43,.17-3.31,.86c-.87,.87-1.21,1.92-1.56,3.31m-143.34,56.09v-5.22c1.22,1.22,2.44,2.44,3.66,2.96,1.04,.7,2.27,1.05,3.48,1.05s2.44-.35,2.96-1.05c1.04-.52,1.22-1.39,1.22-2.61,0-.7-.18-1.57-.52-2.27-.7-.52-1.91-1.57-4-2.79-2.79-2.09-4.88-3.66-5.58-4.53-.87-1.22-1.22-2.44-1.22-4.01,0-2.27,.7-3.66,2.27-5.23,1.39-1.22,3.31-1.91,5.75-1.91,.87,0,2.09,0,3.13,.34,.88,.35,1.74,.87,2.96,1.57v4.36c-1.22-1.04-2.44-1.57-3.31-2.27-.87-.34-1.91-.52-3.13-.52s-2.09,.18-2.79,.88c-.87,.52-1.22,1.57-1.22,2.44,0,1.22,1.57,3.14,5.05,4.88l.17,.34c2.78,1.57,4.35,3.14,5.22,4.36,.69,1.22,1.22,2.78,1.22,4.53,0,1.91-.88,3.83-2.09,5.05-1.57,1.39-3.66,2.09-5.75,2.09-1.56,0-2.79-.35-4-.7-1.22-.18-2.27-1.22-3.49-1.74m27.69-1.57v-5.23c-2.44,.53-4,1.23-4.88,1.92-.87,.52-1.22,1.39-1.22,2.09,0,.87,.35,1.57,.52,1.91,.69,.18,1.22,.52,1.91,.52,.87,0,1.57,0,1.92-.35,.52-.18,1.22-.52,1.74-.87m.35,2.09c-.87,.69-1.92,1.04-2.78,1.22-.7,.35-1.57,.35-2.44,.35-1.57,0-2.79-.35-3.66-.87-1.04-.87-1.57-1.91-1.57-3.48,0-1.22,.52-2.09,1.57-2.96,.87-1.22,2.44-1.92,4.53-2.44l4-1.57v-.7c0-1.21,0-1.74-.52-2.44-.69-.35-1.57-.52-2.79-.52-1.04,0-1.91,.17-2.78,.52-1.22,.35-2.27,.87-3.48,1.92v-3.48c1.04-.88,2.26-1.4,3.13-1.75,1.22-.35,2.44-.7,3.66-.7,2.26,0,4.01,.7,4.88,1.57,1.39,.88,1.57,2.79,1.57,4.88v7.67c0,.7,0,1.05,.35,1.39,0,.18,.34,.18,.69,.18h.52c.35-.18,.7-.52,1.22-.87v2.09c-.52,.69-1.57,1.04-2.09,1.22-.69,.35-1.22,.35-1.91,.35-.87,0-1.22,0-1.57-.35-.17-.18-.52-.52-.52-1.22m8.01,1.22v-17.77h3.66v2.09c.87-.53,1.92-1.22,2.79-1.75,.52-.35,1.74-.7,2.79-.7,1.74,0,3.31,.7,4.53,1.92,1.04,1.22,1.56,2.79,1.56,4.53v11.67h-3.31v-10.62c0-1.56-.35-2.61-1.04-3.14-.53-.87-1.4-1.22-2.96-1.22-1.04,0-1.57,.34-2.26,.52-.87,.35-1.39,1.05-2.09,1.92v12.54h-3.66Zm29.79-.18c-.53,.18-1.22,.18-1.74,.52h-2.26c-1.74,0-3.31-.35-4.35-1.22-.52-.87-1.22-2.79-1.22-5.23v-8.54h-2.96v-.34l6.44-6.8h.35v4.01h5.4v3.13h-5.4v8.19c0,1.57,.18,2.44,.52,2.78,.35,.7,.87,.7,2.09,.7h1.56c.35-.35,1.04-.35,1.57-.7v3.48Zm11.32-3.13v-5.23c-2.09,.53-3.83,1.23-4.88,1.92-.87,.52-1.22,1.39-1.22,2.09,0,.87,.35,1.57,.7,1.91,.52,.18,1.22,.52,2.09,.52,.7,0,1.22,0,1.92-.35,.52-.18,1.22-.52,1.39-.87m.35,2.09c-.87,.69-1.74,1.04-2.44,1.22-.87,.35-1.74,.35-2.79,.35-1.57,0-2.79-.35-3.66-.87-.87-.87-1.22-1.91-1.22-3.48,0-1.22,.35-2.09,1.22-2.96,.87-1.22,2.44-1.92,4.7-2.44l3.83-1.57v-.35c.35,0,.35-.35,.35-.35,0-1.21-.35-1.74-.87-2.44-.7-.35-1.22-.52-2.44-.52s-2.26,.17-3.14,.52c-1.22,.35-2.09,.87-3.31,1.92v-3.48c.87-.88,2.09-1.4,2.96-1.75,1.22-.35,2.61-.7,3.83-.7,2.09,0,4,.7,4.87,1.57,1.22,.88,1.57,2.79,1.57,4.88v7.67c0,.7,.18,1.05,.18,1.39,0,.18,.34,.18,.69,.18h.52c.34-.18,.7-.52,1.39-.87v2.09c-.7,.69-1.39,1.04-2.27,1.22-.52,.35-1.22,.35-1.74,.35-.7,0-1.22,0-1.57-.35-.35-.18-.7-.52-.7-1.22m8.36,1.22v-17.77h3.31v2.09c1.05-.53,1.92-1.22,2.79-1.75,1.04-.35,1.91-.7,2.78-.7,1.92,0,3.48,.7,4.71,1.92,.87,1.22,1.39,2.79,1.39,4.53v11.67h-3.31v-10.62c0-1.56-.35-2.61-.87-3.14-.7-.87-1.57-1.22-3.13-1.22-.52,0-1.57,.34-2.09,.52-1.04,.35-1.56,1.05-2.26,1.92v12.54h-3.31Zm32.05-4.01v-9.76c-.7-.35-1.22-.7-1.92-.87-.69-.34-1.22-.34-1.92-.34-1.74,0-3.3,.52-4.18,1.57-1.22,1.22-1.57,2.79-1.57,4.53,0,1.92,.35,3.48,1.57,4.7,.87,1.22,2.44,1.56,4.18,1.56h1.92c.7-.34,1.22-.69,1.92-1.39m0,3.14c-.7,.69-1.57,.87-2.27,.87-.87,.35-1.57,.35-2.44,.35-2.78,0-4.87-.52-6.44-2.44-1.57-1.92-2.44-4.01-2.44-6.79s.87-4.88,2.44-6.45c1.57-1.74,3.66-2.79,6.44-2.79,.87,0,1.57,0,2.44,.35,.7,.35,1.22,.69,2.27,1.22v-10.1h3.31v26.65h-3.31v-.87Zm23.69-.87c-1.22,.87-2.61,1.57-3.84,1.74-1.22,.35-2.43,.7-4,.7-2.61,0-4.87-.87-6.45-2.79-1.74-1.92-2.78-4.01-2.78-7.14,0-2.44,1.04-4.53,2.61-6.45,1.75-1.4,3.66-2.44,6.45-2.44,2.43,0,4.52,1.04,6.09,2.44,1.57,1.91,2.09,4,2.09,7.14v.35h-13.23c0,1.74,.69,2.96,1.56,4.01,1.05,.87,2.44,1.56,4.01,1.56,1.22,0,2.43-.34,3.65-.69,1.23-.7,2.62-1.22,3.84-1.91v3.48Zm-13.06-8.88h9.22c0-1.22-.52-2.26-1.22-3.14-.87-.87-1.74-1.22-2.96-1.22-1.57,0-2.44,.34-3.49,1.22-.87,.52-1.56,1.92-1.56,3.14m16.72,10.62v-17.77h3.31v4.01c1.23-1.57,2.27-2.79,2.79-3.31,.87-.69,1.92-1.04,2.79-1.04,.69,0,1.22,.35,1.91,.7,.52,.35,1.22,.53,2.09,1.22l-1.92,2.96c-.52-.17-1.22-.87-1.74-.87-.7-.35-1.05-.35-1.57-.35-.87,0-1.92,.35-2.44,1.22-.87,.7-1.22,1.92-1.92,3.48v9.76h-3.31Z" fill="#fff" fill-rule="evenodd"/>
      <path d="M403.68,139.99v68.81c6.1-1.22,12.01-2.96,17.76-5.4,1.92-.7,3.48-1.22,4.88-2.27,8.36-4.01,16.02-9.41,22.47-16.2V115.08h-26.12v-48.07c2.26,.87,4.01,2.26,5.92,3.66v38.84h20.2v-44.93c-2.09-2.09-4.18-4.36-6.45-6.1-2.43-1.92-5.22-3.66-7.66-5.57-9.57-6.1-20.03-10.1-31-12.37v93.88h24.56v44.25c-1.57,1.57-3.31,2.78-5.57,3.83v-42.51h-18.98Z" fill="#9dc452" fill-rule="evenodd"/>
      <path d="M378.77,209.49c3.31,.35,6.45,.52,9.76,.52,3.13,0,6.44-.18,9.58-.52V40.02c-3.13-.35-6.45-.7-9.58-.7-3.31,0-6.45,.35-9.76,.7V209.49Z" fill="#9dc452" fill-rule="evenodd"/>
      <path d="M348.64,49.59c-7.14,3.83-13.93,8.88-20.03,14.98v120.36c2.09,2.09,4.35,4.18,6.79,6.1,2.44,1.92,4.88,3.66,7.67,5.57,8.88,5.75,19.33,10.1,30.13,12.02V40.89c-6.1,.87-11.67,2.78-17.25,5.22-.69,0-1.22,.35-1.92,.7V182.15c-1.74-1.22-3.65-2.44-5.4-3.66V49.59Z" fill="#9dc452" fill-rule="evenodd"/>
    </g>
  </g>
</svg>