<?xml version="1.0" encoding="UTF-8"?>
<svg id="Capa_2" data-name="Capa 2" xmlns="http://www.w3.org/2000/svg" viewBox="0 0 552.4 340.93">
  <g id="Capa_1-2" data-name="Capa 1">
    <g>
      <g>
        <path d="M281.89,73.29c.35,.39,1.02,.57,1.68,.28,.11,.29,.35,.55,.65,.66,.15,.05,.3,.08,.45,.08,.36,0,.72-.15,1.08-.44,.44,.63,1.5,.78,2.61,.78,.64,0,1.3-.05,1.85-.1,.31-.02,.58-.04,.78-.05,1.41-.06,2.4-.38,3.16-1.32,.71,.27,2.59,.71,4.61-2.06,.57-.18,3.52-1.26,3-4.42,.44-.41,1.82-1.88,1.02-3.76,.11-.41,.43-1.82-.26-2.49-.13-.3-.77-1.62-1.91-1.84-.69-.14-1.42,.16-2.14,.89-.1,.1-.42,.44-.52,.75-.65,.38-.93,1.05-1.01,1.29-.52,.27-.82,.79-.96,1.1-.94-.18-2,.04-3.17,.67-.79-.59-1.69-.91-2.67-.91h-.02c-1.26-.02-2.5,.55-3.49,1.65-1.28,1.42-1.94,3.49-1.75,5.46-.27,0-.55,.07-.77,.23-.42,.29-.68,.79-.71,1.36h0s-.01,0-.01,0c-.55-.03-1.04,.13-1.39,.47-.62,.7-.46,1.37-.13,1.72m14.44-10.01c1.36,.52,1.88,2,1.89,2.02l.5-.17c-.02-.07-.6-1.74-2.19-2.34,0,0-.01,0-.01,0,.14-.3,.44-.77,.95-.86,.52-.1,1.45,.18,2.91,2.03l.41-.33c-1.21-1.53-2.27-2.27-3.19-2.23,.14-.27,.39-.6,.82-.77,.64-.25,1.53,0,2.59,.71l.3-.44c-.98-.66-1.84-.95-2.57-.88,.04-.05,.09-.1,.13-.14,.59-.6,1.15-.85,1.66-.75,.97,.2,1.54,1.58,1.55,1.59l.02,.06,.05,.04c.49,.42,.25,1.64,.12,2.07l-.03,.1,.04,.09c.86,1.86-.87,3.26-.95,3.32l-.13,.1,.03,.16c.6,3.12-2.55,3.96-2.68,3.99l-.09,.02-.06,.08c-1.57,2.21-3.16,2.21-3.96,2.02,1.27-2.04,1.33-5.02,.1-7.4-.35-.66-.77-1.23-1.26-1.69,1.16-.58,2.2-.72,3.06-.39m-13.93,8.65c.31-.29,.74-.32,.95-.3,.22,.04,.36-.04,.44-.11,.07-.07,.16-.2,.15-.4,.02-.39,.21-.76,.48-.95,.29-.2,.66-.2,.91,0l.49,.39-.06-.62c-.01-.17,.04-.3,.16-.41,.2-.19,.58-.28,.93-.21,.22,.02,.94,.14,1.09,.65l.19,.63,.3-.59c.32-.63,.97-.84,1.43-.77,.48,.07,.81,.41,.89,.94l.52-.08c-.12-.76-.62-1.27-1.33-1.38-.13-.02-.25-.02-.39-.01,.15-.8,.68-2.79,2.28-3.22,.3,.33,.55,.72,.74,1.2,.75,1.85,.45,4.3-.7,5.7l.41,.33c1.28-1.56,1.61-4.17,.77-6.23-.58-1.43-1.62-2.31-2.93-2.45-1.04-.1-2.08,.36-2.92,1.31-.77,.88-1.28,2.06-1.45,3.36,0,.04,0,.18-.02,.29-.07,.04-.13,.09-.19,.13-.06,.06-.1,.11-.14,.17-.13-1.78,.48-3.63,1.63-4.9,.88-.97,1.98-1.51,3.09-1.48h.01c1.61,0,3.03,.98,3.9,2.68,1.16,2.26,1.1,5.09-.15,6.99-.47,.93-2.03,1.38-2.92,1.39-.21,0-.5,.03-.82,.06-1.26,.1-3.6,.3-4.04-.51l-.09-.13-.15-.4c-.38,.44-.94,.93-1.5,.73-.2-.08-.4-.31-.37-.56l.06-.59-.48,.35c-.52,.38-1.08,.28-1.34,0-.24-.26-.19-.64,.13-1m3.89-3.13c.15-1.2,.6-2.3,1.31-3.1,.72-.82,1.6-1.22,2.47-1.13,.49,.05,.92,.24,1.31,.52-1.82,.72-2.28,3.09-2.38,3.75-.3,.12-.58,.31-.79,.56-.27-.33-.73-.54-1.29-.6-.19-.04-.41-.03-.63,0" fill="#fff"/>
        <path d="M250.6,66.7c-.52,3.16,2.43,4.25,3,4.42,1.32,1.82,2.7,2.24,3.69,2.24,.64,0,1.12-.18,1.33-.27,.49,.14,.98,.21,1.45,.21,.6,0,1.18-.11,1.73-.34,.15,.15,.41,.29,.91,.27,.5,0,1.11-.03,1.64-.28,.18,.2,.51,.3,.94,.3,.88-.02,1.72-.07,2.38-.52,.15,.11,.36,.18,.63,.19,1.28,.06,2.61,.12,3.89-.05,.3-.01,.52-.16,.59-.4,.07-.25-.05-.52-.31-.7-.06-.04-.11-.07-.17-.1-.09-.05-.17-.1-.21-.16-.01-.02-.03-.04-.03-.06-.03-.06-.07-.14-.14-.21l-.09-.05c-.39-.17-.91-.22-1.42-.27-.22-.03-.44-.04-.63-.07-.15-.51-.71-.84-1.28-.88-.05,0-.13,0-.15-.02-.02-.01-.05-.06-.08-.1-.02-.02-.04-.05-.06-.08-.21-.26-.47-.38-.76-.44,.16-1.93-.48-3.89-1.75-5.28-.97-1.07-2.18-1.65-3.4-1.65h-.1c-.98,0-1.89,.33-2.68,.91-1.16-.63-2.23-.85-3.17-.67-.14-.31-.44-.83-.96-1.1-.08-.24-.35-.91-1.01-1.29-.1-.32-.42-.65-.52-.76-.72-.73-1.44-1.03-2.14-.89-1.13,.22-1.78,1.55-1.91,1.85-.69,.67-.38,2.07-.26,2.49-.8,1.88,.59,3.35,1.02,3.76m17.2,3.39l.04,.06c.06,.08,.12,.17,.23,.25,.14,.09,.29,.1,.45,.1,.36,.03,.76,.27,.77,.59v.21s.21,.04,.21,.04c.26,.05,.57,.08,.86,.11,.44,.04,.88,.08,1.2,.2,0,.01,.01,.03,.02,.03,.02,.04,.04,.08,.06,.12,.1,.17,.27,.27,.4,.34,.04,.02,.09,.05,.12,.07,.09,.06,.1,.12,.11,.12,0,0-.04,.02-.14,.03-1.26,.16-2.56,.1-3.82,.05-.26,0-.35-.07-.35-.1l-.11-.39-.32,.27c-.56,.49-1.39,.55-2.26,.56-.26,0-.55-.05-.57-.18l-.07-.39-.33,.22c-.43,.28-.96,.31-1.61,.33-.3,.01-.51-.05-.54-.15l-.08-.3-.28,.13c-.3,.14-.65,.24-1.02,.3-1.27-1.29-1.75-3.69-1.11-5.68,.15-.44,.41-1.03,.87-1.53,1.66,.46,2.18,2.7,2.31,3.47h-.37s.02,.54,.02,.54l2.48-.1c.24,0,.44,0,.55,.06,.24,.23,.48,.34,.72,.34,.15,.01,.3,.01,.45,.01,.45,0,.87,0,1.1,.29m-6.82-5.01c.35-.25,.78-.45,1.32-.52,.72-.1,1.49,.21,2.17,.85,1,.94,1.6,2.4,1.6,3.79-.07-.04-.13-.09-.22-.16-.29-.21-.66-.19-.9-.18l-1.58,.07c-.12-.75-.61-3.13-2.39-3.85m1.24-2.15h.01c1.11-.02,2.2,.5,3.09,1.47,1.15,1.27,1.75,3.12,1.62,4.88h-.24s-.07,0-.1,0c.02-1.55-.64-3.19-1.76-4.24-.8-.75-1.73-1.1-2.6-.99-1.42,.17-2.54,1.19-3.07,2.81-.58,1.78-.41,4.27,.94,5.91-.56,.02-1.14-.06-1.66-.2-1.23-1.89-1.29-4.72-.13-6.96,.88-1.71,2.3-2.68,3.91-2.68m-12.11-.04c-.13-.44-.37-1.65,.12-2.07l.05-.04,.02-.06s.58-1.39,1.55-1.59c.52-.1,1.07,.15,1.66,.75,.04,.04,.08,.08,.13,.13-.73-.07-1.59,.22-2.57,.88l.3,.44c1.07-.72,1.94-.96,2.59-.71,.42,.16,.66,.5,.81,.77-.91-.04-1.99,.71-3.18,2.23l.41,.33c1.47-1.85,2.39-2.12,2.91-2.02,.5,.1,.8,.56,.94,.86t-.01,0c-1.59,.6-2.17,2.28-2.2,2.34l.5,.17s.53-1.5,1.88-2.02c.87-.33,1.9-.19,3.07,.4-.49,.45-.91,1.02-1.26,1.69-1.22,2.37-1.17,5.36,.1,7.4-.8,.18-2.4,.18-3.96-2.02l-.05-.08-.09-.02c-.14-.04-3.29-.87-2.69-3.99l.03-.16-.12-.1c-.08-.06-1.81-1.46-.95-3.32l.04-.09-.03-.1Z" fill="#fff"/>
        <path d="M275.93,71.06c-.02,.88-.11,1.82-.28,2.8l-.02,.11,.07,.09s.58,.75,1.55,1.1l.3,.11,.04-.32c.02-.1,.33-2.5,.05-5.08,3.24-.99,4.24-4.25,4.53-5.63,.17-.81,.12-.85,.01-.93l-.12-.1-.14,.05c-2.74,1.06-4.03,3.08-4.62,4.63-.21-.83-.51-1.55-.87-2.15,2.66-.28,4.73-2.52,4.73-5.24,0-1.54-.66-2.92-1.72-3.88l1.31-1.61-2.47,.3-.74-1.27-1.27,.78-.99-.82-.52,1.03-2.23-.87,.6,1.81c-1.72,.99-2.53,2.81-2.53,4.52,0,2.18,1.32,4.55,4.18,5.14,.12,.16,.72,1.04,1.01,2.9-.93-1.42-2.6-3.09-5.43-3.57l-.22-.04-.07,.21c-.08,.22,.56,1.69,1.24,2.73,.87,1.33,2.37,2.93,4.62,3.19m1.57-2.07c.35-1.36,1.36-3.78,4.19-5.05-.21,1.19-1.08,4.55-4.3,5.46l.11-.41Zm2.01-13.3l-.48,.6c-.23-.17-.47-.33-.71-.45l1.19-.15Zm1.12,4.81c0,2.13-1.42,3.93-3.35,4.53,3.11-4.19,.92-7.75-.19-9.12,2.03,.54,3.54,2.39,3.54,4.58m-3.28-5.73l.49,.84c-.41-.17-.85-.29-1.31-.34l.82-.5Zm-1.91,.06l.49,.39h-.07c-.22,0-.43,.03-.63,.06l.22-.45Zm-1.06,.62c-.28,.08-.55,.17-.79,.28l-.22-.67,1.01,.39Zm-3.26,5.05c0-1.94,1.17-4.06,3.69-4.61-1.11,1.34-3.37,4.92-.26,9.16-2.34-.64-3.43-2.68-3.43-4.55m4.5-4.73c.09,0,.16,0,.24-.02,.13,0,.26,0,.39,.02,.54,.52,4.34,4.5,.22,9.43-.19,.02-.39,.04-.6,.04-.18,0-.36-.02-.53-.04-4.08-4.95-.25-8.92,.28-9.43m-.16,9.97c.12,0,.23,.03,.35,.03,.55,.79,.94,1.86,1.17,3.19l.08,.53,.03,.22c.25,2.04,.1,4.04,.02,4.83-.47-.24-.78-.56-.92-.71,.17-1.05,.26-2.06,.27-3.01v-.25s-.02-.83-.02-.83v-.02c-.12-2.09-.63-3.36-.98-3.98m.47,4.15l.32,.67h-.03c-3.39-.24-5.04-3.77-5.5-4.98,3.1,.7,4.59,2.98,5.22,4.31" fill="#fff"/>
        <path d="M257.95,21.03c-.22-.27-.23-.71-.09-1.02,.05-.09,.1-.17,.18-.24,.01,0,.03-.02,.04-.04-.31,.14-.75,0-.9-.31-.18-.4,.07-.9,.48-1.05-.33,.05-.63,.24-.95,.35-.32,.11-.71,.15-.97-.07-.26-.21-.3-.6-.18-.91,.12-.31,.35-.55,.58-.79-.52,.12-.99,.63-1.5,.46-.51-.16-.57-.91-.3-1.37,.28-.46,.75-.77,1.05-1.22-.79,.38-1.62,.66-2.46,.86-.3,.07-.65,.12-.88-.08-.17-.14-.15-.44-.02-.57l-1.19,.39c-.28,.09-.58,.19-.85,.1-.29-.08-.5-.42-.34-.66-.43,.26-.89,.53-1.39,.47-.3-.03-.52-.16-.67-.43-.18-.31-.04-.45,.22-.66-.48,.19-.95,.77-.8,1.32,.11,.39,.58,.59,.98,.56,.41-.04,.78-.25,1.13-.47-.15,.09,.29,.56,.35,.61,.28,.21,.71,.27,1.05,.19,.2-.04,.4-.12,.58-.22,.07-.03,.54-.26,.54-.32,0,.27,.37,.34,.63,.33,.53,0,1.06-.02,1.59-.04-.38,.34-.48,.94-.24,1.37,.25,.44,.82,.68,1.31,.55-.41,.46-.08,1.27,.5,1.45,.51,.15,1.05-.08,1.4-.48-.05,.06-.09,.14-.13,.21-.04,.07-.07,.14-.1,.22-.06,.16-.09,.33-.06,.49,.02,.14,.08,.29,.16,.41,.08,.12,.18,.21,.31,.26,.06,.02,.13,.04,.2,.04,.16,0,.3-.07,.42-.17-.09,.15-.18,.31-.26,.46-.08,.16-.15,.33-.17,.5-.05,.41,.3,.76,.68,.81,.22,.04,.45,0,.65-.11,.45-.26,.69-.74,.89-1.21-.34,.46-1.12,.47-1.48,.04" fill="#fff"/>
        <path d="M238.05,15.57c.33-.09,.62-.29,.91-.46,.07-.04,.18-.09,.26-.04,.07,.05,.07,.14,.08,.23,.04,.4,.44,.69,.85,.72,.41,.03,.8-.15,1.14-.37-.01,.08-.03,.15-.03,.23,.16,.26,.49,.38,.8,.39,.32,.01,.62-.08,.91-.17,.38-.11,.79-.25,1-.59-.19,.2-.43,.4-.7,.37-.3-.05-.48-.4-.43-.7,.04-.3,.24-.55,.44-.77-.52,.32-1.08,.56-1.66,.72-.24,.07-.5,.13-.74,.06-.24-.06-.46-.28-.44-.53,.02-.14,.1-.26,.19-.37,.15-.16,.32-.29,.52-.39-.48,.19-.96,.39-1.44,.58-.36,.14-.72,.29-1.11,.26-.38-.02-.78-.28-.83-.65-.03-.15,0-.3,.08-.44-.06,.04-.13,.08-.19,.13-.24,.19-.48,.4-.6,.68-.13,.28-.13,.63,.06,.87,.22,.26,.61,.32,.94,.23" fill="#fff"/>
        <path d="M262.15,7.18s-.11,.04-.13,.05c-.04,.02-.08,.04-.12,.05-.17,.07-.36,.12-.54,.11-.29-.01-.59-.19-.65-.47-.04-.18,.02-.4-.09-.55-.11-.16-.34-.16-.53-.12-.44,.08-1.33,.72-1.68,.17-.05-.08-.05-.19-.03-.3,0-.07,.03-.14,.07-.21-.38,.33-.77,.44-1.2,.67-.43,.22-.87,.43-1.31,.61-.26,.12-.63,.18-.84-.07-.25-.32,.02-.82,.24-1.08,.24-.27,.24-.28,.55-.47-1.16,.45-2.14,.69-3.37,1.12-1.24,.43-2.46,.98-3.41,1.87-.14,.14-.3,.3-.34,.5s.06,.44,.26,.49c-1.38,.44-2.59,1.37-3.36,2.59-.16,.25-.28,.61-.06,.82,.11,.09,.26,.11,.41,.1,.4,0,.8-.14,1.13-.37-.22-.16-.27-.49-.18-.74,.09-.26,.29-.46,.49-.65,.79-.73,1.71-1.32,2.71-1.72-.15,.07-.33-.1-.33-.26,0-.16,.1-.32,.21-.44,.1-.12,.19-.23,.3-.34,.46-.46,1.01-.82,1.59-1.11,.62-.31,1.27-.55,1.92-.76,.09-.03,.18-.06,.27-.09,.04-.01,.26-.06,.26-.08-.19,.62-.24,1.53,.65,1.53,.91,0,1.82-.41,2.41-1.1-.19,.29-.36,.67-.16,.94,.19,.25,.56,.24,.86,.17,.71-.17,1.39-.52,1.93-1.01-.22,.29-.44,.73-.17,.99,.03,.03,.07,.06,.1,.07,.15,.07,.34,.07,.51,.03,.24-.04,.49-.12,.71-.22,.31-.14,.58-.33,.82-.55,.02-.02,.17-.15,.12-.16" fill="#fff"/>
        <path d="M243.64,21.76c-1.07,.54-2.23,.93-3.41,1.14-.35,.07-.85,.03-.9-.33-.03-.16,.06-.31,.15-.44,.4-.6,.95-1.1,1.59-1.45-1.03,.5-2.14,.84-3.29,1.02-.45,.07-1.09-.03-1.11-.49-.01-.19,.11-.36,.23-.51,.44-.54,.97-1,1.57-1.38-.94,.62-1.98,1.11-3.07,1.43-.44,.13-.97,.23-1.35-.04-.26-.19-.3-.6-.14-.84-.65,.37-1.4,.57-2.15,.53-.13-.01-.29-.03-.39-.12-.35-.32,.06-.91,.36-1.25-.43,.45-.87,.86-1.19,1.41-.17,.29-.28,.71,0,.9,.1,.07,.24,.07,.37,.07,.25,0,.52-.03,.78-.08,.16-.03,.31-.07,.47-.1,.19-.05,.36-.11,.54-.19,.09-.04,.46-.15,.49-.23-.25,.62,.44,1.3,1.12,1.32,.68,.02,1.29-.37,1.85-.75-.22,.32,0,.78,.35,.95,.35,.17,.76,.11,1.14,.04,.66-.14,1.32-.34,1.95-.6-.24,.6-1.14,1.08-.84,1.65,.13,.24,.42,.34,.69,.39,1.05,.2,2.19-.04,3.07-.64,.19-.14,.4-.29,.63-.28,.19,0,.35,.13,.52,.2,.36,.16,.8,.13,1.13-.09-.65,.05-1.26-.6-1.15-1.24" fill="#fff"/>
        <path d="M229.5,26.09c-.04-.16-.01-.33,.06-.47,.03-.04,.07-.09,.09-.14-.07,0-.13,.07-.18,.1-.06,.04-.12,.08-.18,.12-.13,.07-.26,.14-.39,.19-.27,.11-.56,.18-.85,.21-.2,.02-.4,.03-.59,0-.1,0-.2-.02-.3-.04-.09-.01-.17-.02-.23-.09-.07-.08-.1-.18-.11-.29-.01-.1-.01-.22,.02-.31,.01-.03,.03-.06,.04-.09,.04-.09,.07-.18,.13-.25,.06-.08,.11-.16,.19-.22-.62,.41-1.33,.71-2.06,.86-.12,.02-.24,.04-.34-.02-.21-.13-.11-.45,.02-.66,.6-.95,1.36-1.77,2.19-2.53-.89,.58-1.7,1.29-2.42,2.07-.3,.33-.6,.75-.46,1.16,.13,.36,.56,.55,.94,.52,.39-.03,.74-.22,1.08-.41,.08-.05,.18-.1,.27-.14,.08-.05,.16-.07,.24-.12-.09,.27-.15,.56-.13,.84,.01,.13,.04,.25,.11,.36,.06,.1,.17,.19,.29,.21,.14,.02,.28,0,.42-.04,.19-.04,.38-.1,.57-.18,.28-.1,.55-.24,.81-.41,.2-.12,.36-.26,.53-.41,.03-.03,.07-.08,.11-.08,0,.04-.02,.1-.03,.15-.02,.06-.04,.13-.05,.19-.02,.13,0,.27,.03,.39,.06,.15,.17,.29,.32,.36,.07,.04,.13,.03,.2,.04,.08,0,.16,.02,.24,0,.29-.03,.54-.18,.77-.34,.68-.49,1.23-1.16,1.59-1.91-.76,.54-1.58,.99-2.45,1.35-.1,.04-.44,.14-.49-.02" fill="#fff"/>
        <path d="M304.07,14.22c.26,.21,.39,.36,.22,.66-.15,.27-.37,.4-.67,.44-.5,.05-.96-.21-1.39-.47,.16,.24-.05,.58-.34,.66-.28,.08-.57,0-.85-.1l-1.19-.4c.14,.13,.15,.43-.02,.56-.24,.2-.58,.15-.88,.08-.85-.2-1.68-.49-2.46-.85,.3,.44,.77,.75,1.05,1.22,.27,.46,.22,1.2-.3,1.37-.51,.16-.98-.34-1.5-.47,.23,.24,.47,.49,.58,.8,.11,.31,.07,.7-.18,.91-.26,.22-.65,.18-.97,.07-.31-.11-.61-.29-.95-.35,.41,.15,.66,.65,.48,1.04-.14,.32-.59,.46-.89,.32,0,.01,.03,.02,.04,.03,.07,.07,.13,.16,.17,.25,.15,.31,.14,.76-.08,1.02-.36,.43-1.14,.41-1.48-.04,.21,.47,.45,.95,.89,1.21,.19,.11,.43,.15,.65,.12,.39-.06,.74-.41,.68-.82-.02-.18-.09-.34-.17-.5-.08-.16-.17-.31-.26-.46,.13,.1,.26,.17,.42,.16,.07,0,.14-.01,.2-.04,.13-.05,.23-.14,.31-.25,.08-.12,.14-.27,.16-.41,.03-.17,0-.34-.06-.5-.02-.07-.06-.15-.1-.22-.04-.07-.08-.15-.13-.21,.34,.39,.89,.63,1.4,.48,.59-.18,.91-.99,.51-1.44,.49,.13,1.06-.11,1.31-.55,.24-.44,.14-1.04-.24-1.37,.53,.01,1.06,.03,1.59,.04,.27,0,.62-.07,.63-.33,0,.06,.48,.28,.54,.32,.18,.09,.38,.18,.58,.22,.33,.07,.77,0,1.05-.2,.06-.04,.5-.52,.35-.61,.35,.21,.71,.43,1.12,.47,.41,.04,.87-.17,.98-.56,.15-.54-.32-1.13-.8-1.31" fill="#fff"/>
        <path d="M308.61,15.88c-.27,.04-.51-.17-.69-.36,.2,.33,.61,.47,.99,.58,.3,.09,.6,.18,.92,.18,.31-.01,.63-.14,.8-.4-.01-.07-.02-.15-.03-.22,.34,.22,.73,.4,1.14,.37,.41-.03,.81-.32,.85-.72,.01-.09,0-.19,.08-.24,.08-.05,.17,0,.25,.04,.3,.18,.58,.37,.91,.45,.33,.09,.73,.04,.94-.22,.2-.24,.19-.59,.06-.87-.13-.28-.36-.5-.6-.68-.06-.04-.13-.08-.19-.12,.07,.14,.1,.29,.08,.44-.05,.38-.45,.63-.83,.65-.39,.02-.76-.12-1.11-.27-.48-.19-.96-.39-1.44-.58,.2,.1,.38,.23,.52,.39,.1,.1,.18,.23,.19,.36,.03,.25-.19,.47-.44,.53-.24,.06-.5,0-.74-.06-.59-.16-1.15-.41-1.67-.73,.2,.23,.4,.49,.44,.78,.05,.3-.13,.65-.43,.69" fill="#fff"/>
        <path d="M289.85,7.34c.24,.22,.52,.41,.81,.55,.23,.1,.47,.18,.71,.23,.17,.03,.36,.04,.51-.04,.04-.02,.08-.04,.11-.07,.26-.26,.04-.69-.18-.98,.55,.49,1.21,.83,1.92,1,.3,.07,.68,.09,.87-.17,.2-.27,.04-.65-.16-.93,.6,.68,1.5,1.1,2.42,1.1,.88,0,.84-.91,.64-1.53,0,.02,.23,.07,.26,.08,.09,.03,.18,.06,.27,.09,.66,.21,1.31,.45,1.93,.76,.58,.29,1.13,.65,1.6,1.11,.1,.1,.2,.22,.3,.34,.1,.13,.21,.28,.2,.44,0,.17-.18,.33-.33,.26,1,.4,1.92,.99,2.71,1.72,.2,.19,.39,.4,.48,.65,.09,.26,.04,.58-.18,.74,.33,.24,.73,.37,1.13,.38,.14,0,.3,0,.4-.1,.23-.19,.1-.56-.05-.82-.77-1.22-1.98-2.15-3.36-2.59,.2-.04,.3-.29,.26-.49-.04-.2-.19-.36-.34-.5-.94-.9-2.17-1.44-3.4-1.87-1.24-.42-2.5-.76-3.68-1.32,.3,.19,.62,.39,.85,.67,.22,.26,.49,.77,.24,1.08-.21,.26-.57,.19-.83,.07-.44-.19-.88-.39-1.31-.61-.43-.22-.82-.34-1.2-.67,.04,.07,.05,.14,.07,.21,.02,.1,.01,.21-.04,.3-.35,.56-1.25-.08-1.68-.17-.19-.04-.41-.03-.53,.12-.11,.15-.04,.37-.08,.56-.06,.29-.37,.46-.66,.47-.18,0-.37-.04-.54-.11-.04-.01-.09-.03-.13-.05-.03,0-.1-.06-.13-.05-.05,.02,.09,.14,.12,.16" fill="#fff"/>
        <path d="M308.21,23.09c.17-.07,.33-.19,.52-.21,.24-.01,.44,.15,.63,.28,.88,.61,2.01,.85,3.07,.65,.27-.06,.57-.15,.68-.39,.3-.58-.59-1.05-.83-1.65,.62,.27,1.28,.47,1.94,.6,.38,.08,.79,.13,1.14-.04,.35-.17,.58-.64,.35-.95,.56,.38,1.18,.77,1.86,.75,.68-.02,1.36-.7,1.12-1.32,.04,.09,.4,.2,.49,.24,.18,.07,.36,.13,.54,.18,.15,.04,.31,.08,.47,.11,.26,.05,.53,.07,.78,.08,.13,0,.26,0,.37-.08,.28-.18,.18-.6,0-.89-.32-.54-.75-.97-1.19-1.41,.3,.33,.71,.93,.36,1.25-.1,.09-.25,.11-.39,.12-.75,.04-1.5-.16-2.15-.53,.15,.24,.11,.65-.14,.84-.38,.27-.9,.17-1.35,.04-1.09-.32-2.13-.8-3.08-1.43,.59,.37,1.13,.83,1.57,1.37,.12,.15,.24,.32,.24,.51-.02,.46-.66,.55-1.12,.49-1.14-.18-2.25-.52-3.29-1.02,.63,.35,1.19,.85,1.59,1.45,.09,.13,.18,.29,.15,.44-.06,.35-.55,.4-.91,.33-1.19-.21-2.34-.6-3.42-1.14,.11,.63-.5,1.29-1.15,1.24,.33,.21,.77,.24,1.13,.09" fill="#fff"/>
        <path d="M321.05,26.67c.23,.16,.49,.32,.77,.35,.08,0,.15,0,.23-.01,.08,0,.14,0,.21-.04,.14-.08,.26-.21,.31-.36,.05-.12,.06-.26,.04-.39,0-.07-.03-.13-.05-.2-.02-.04-.03-.1-.03-.15,.04,0,.08,.06,.11,.08,.17,.15,.34,.29,.53,.42,.26,.16,.53,.3,.82,.41,.18,.07,.38,.13,.57,.18,.13,.03,.28,.05,.41,.04,.12-.02,.23-.12,.29-.21,.07-.1,.1-.23,.1-.36,.02-.29-.03-.58-.13-.85,.08,.06,.17,.08,.25,.12,.09,.05,.18,.1,.27,.15,.34,.18,.69,.38,1.08,.41,.39,.03,.82-.16,.94-.53,.14-.41-.16-.83-.45-1.16-.72-.78-1.53-1.49-2.43-2.07,.84,.76,1.59,1.58,2.19,2.53,.13,.21,.24,.53,.02,.66-.1,.06-.23,.04-.34,.02-.74-.15-1.44-.45-2.06-.85,.08,.06,.14,.13,.2,.21,.06,.07,.09,.16,.13,.25,.01,.03,.02,.06,.04,.09,.02,.1,.03,.22,.02,.32-.01,.11-.05,.2-.12,.29-.06,.07-.15,.07-.23,.09-.1,.02-.2,.03-.3,.03-.2,.02-.4,.01-.59,0-.29-.04-.58-.11-.84-.22-.13-.05-.27-.12-.4-.19-.06-.04-.13-.07-.18-.12-.06-.03-.12-.1-.18-.1,.02,.05,.07,.09,.09,.14,.07,.15,.1,.31,.07,.47-.04,.16-.4,.06-.49,.02-.86-.35-1.68-.81-2.44-1.35,.35,.76,.91,1.42,1.59,1.91" fill="#fff"/>
        <path d="M274.2,43.5c-2.08-.29-2.73-2.47-2.73-2.47l-.51,.82c1.39,1.97,3.24,1.65,3.24,1.65" fill="#fff"/>
        <path d="M269.99,10.5c-.36,0-.65,.29-.65,.64s.29,.65,.65,.65,.65-.29,.65-.65-.29-.64-.65-.64m0,.93c-.16,0-.29-.13-.29-.29s.13-.28,.29-.28,.29,.13,.29,.28-.13,.29-.29,.29" fill="#fff"/>
        <path d="M344.76,50.28c-.21-.32-.57-.49-.95-.47l-8.7,1.88-.94,4.67-2.28,1.49c-.03-4.01-.21-8.23-.55-12.56l4.61,1,5.14-7.11c.25-.35,.26-.81,.03-1.17-.21-.32-.57-.5-.95-.47l-8.7,1.89-.94,4.67-20.83,13.63c-.09-1.79-.21-3.6-.38-5.47,0-.07,0-.12-.02-.16,.5,.07,.99,.1,1.44,.1,1.15,0,2.15-.23,3-.79,2.9-1.86,3.8-7.47,3.94-8.58l.02-.13-.29-.18c-.55-.37-1.86-1.41-2.23-2.9,.47,.05,.93,.16,1.38,.32,.39,.15,.82,.35,1.26,.57,1.19,.57,2.61,1.24,4.31,1.25,.56,0,1.15-.08,1.78-.26,2.74-.91,3.83-2.28,3.88-2.34l.3-.39-3.4-.3,1.07-3.16-.67,.5s-1.62,1.18-2.36,1.45l-.14,.05c-.64,.21-1.38,.44-3.47-.4-1.28-.53-2.39-.73-3.35-.61-1.22,.15-2.06,.89-2.82,1.56-.74,.65-1.66,1.45-1.94,2.47l-.03,.13c-.04,.16-.07,.33-.09,.5l-.02,.07h0c-.03,.32-.03,.64,.01,.96,.06,.47,.19,.93,.38,1.36,.14,.34,.32,.66,.52,.97,0,0,0,0,0,0-2.11,.01-4.99-.39-8.88-1.61-2.82-.88-5.61-1.33-8.29-1.33-3.83,0-7.05,.87-9.67,2.05,0-.08-.02-.16-.05-.25-.07-.21-.19-.39-.31-.58-.31-.5-.61-1.02-.69-1.61-.1-.67,.02-1.34,.13-2,.14-.95,.09-1.83-.17-2.68-.15-.52-.38-.95-.73-1.33-.15-.15-.27-.32-.41-.49-.06-.08-.12-.15-.18-.22,.33-.52,.49-1.04,.5-1.6,0-.05,.05-.13,.1-.21l.05-.07c.05-.07,.1-.14,.15-.21,.09-.11,.17-.23,.24-.35,.18-.32,.26-.68,.22-1.08v-.6c.1-.05,.18-.12,.25-.19,.3,.66,.84,1.05,1.53,1.07,.66,.03,1.41-.33,1.94-.87,.12,.16,.29,.32,.52,.41,.58,.22,1.11-.15,1.29-.27,.49-.33,.98-.69,1.34-1.2,.2,.07,.38,.07,.53,.04,.66-.1,1.05-.77,1.28-1.28l.05-.1c.1-.26,.13-.28,.2-.32,.5-.24,.72-.71,.86-1.13,.07,0,.13-.02,.2-.05,.23-.1,.35-.08,.54,.07,.3,.25,.69,.25,1.02,.1,.28,.27,.63,.4,1.01,.34,.24-.04,.47-.15,.67-.33,.09,.07,.19,.14,.32,.18,.21,.09,.35,.26,.58,.56l.09,.12c.5,.65,1.02,.78,1.36,.78,.28,0,.66-.1,1.06-.48,.56,.37,1.02,.37,1.32,.29,.33-.08,.78-.33,1.1-1.03,.27-.59,.43-1.15,.47-1.69,.32-.02,.6-.16,.83-.41,.08,.07,.16,.13,.21,.18,.11,.1,.22,.18,.3,.24,.6,.41,1.24,.78,1.9,1.1,.21,.1,.46,.21,.75,.24,.26,.03,.47-.02,.62-.07,.07,.05,.18,.12,.3,.21,1.82,1.28,2.95,1.89,3.74,1.42,.1-.06,.22-.16,.33-.31,1.07,.75,2.18,1.5,3.46,1.95,.27,.09,.56,.1,.81,.02,.21-.07,.37-.18,.49-.3,.28,.2,.56,.4,.85,.61,.97,.7,1.97,1.42,3.1,1.86,.67,.32,1.13,.18,1.39,.02,.36-.22,.53-.58,.61-.97,.6,.53,1.24,1.06,2.23,1.35h.06c.52,.12,.86-.03,1.1-.23,.74,.58,1.5,1.17,2.4,1.61,.44,.2,.93,.15,1.3-.13,.18-.15,.29-.31,.35-.47,.72,.33,1.4,.66,2.02,1.12,.29,.21,1.06,.75,1.86,.26,.17-.12,.34-.29,.44-.55,.39,.32,.79,.63,1.21,.91,.36,.27,1.49,1.04,2.28,.6,.18-.09,.43-.3,.52-.72,.24,.16,.49,.31,.77,.48,.41,.22,.8,.49,1.22,.77,.86,.59,1.76,1.19,2.84,1.44h.07c.06,.02,.12,.02,.17,.02,.26,0,.48-.08,.64-.23,.25-.22,.36-.53,.32-.92-.15-1.53-1.13-2.62-2.01-3.59-2.29-2.53-4.98-4.79-7.59-6.98-.98-.82-2-1.67-2.96-2.52-6.62-5.78-13.48-11.03-20.97-16.04-6.57-4.4-13.23-6.8-19.8-7.12-2.83-.14-5.06,.22-6.81,1.1-4.05,2.11-2.75,6.49-1.8,9.68l.08,.27c.57,1.73,.64,2.96,.21,3.65-.17,.28-.44,.47-.8,.61-.02-.02-.02-.04-.02-.04l-.09-.09c-1.67-1.92-4.31-1.79-5.09-1.7-.31-.2-.6-.41-.76-.54,.08-1.21-.18-2.33-.77-3.23-.2-.3-.43-.57-.68-.81-.01,0-.02-.02-.03-.03v-.05c-.04-.44-.23-.85-.54-1.13-.37-.36-.89-.55-1.48-.53-.52,.01-.98,.18-1.33,.32l-.1,.04c-.3,.12-.6,.25-.8,.19-.04,0-.1-.04-.15-.07,.38-2.06,0-3.97-1.06-5.24-1.94-2.27-5.66-2.57-8.43-2.41-6.57,.32-13.23,2.72-19.8,7.12-7.49,5.01-14.35,10.26-20.97,16.04-.96,.84-1.98,1.69-2.96,2.52-2.6,2.19-5.3,4.44-7.6,6.99-.86,.96-1.85,2.05-2,3.56-.07,.63,.29,.92,.45,1.02,.16,.1,.35,.15,.55,.15,.52,0,1.21-.28,2.05-.84,.48-.33,.97-.61,1.44-.9,.4-.24,.8-.49,1.2-.74,.17-.1,.39-.07,.48,.1,.13,.23,.32,.36,.45,.42,.71,.35,1.66-.13,3.13-1.28,.14-.11,.35-.1,.46,.04,.09,.11,.19,.2,.3,.27,.78,.48,1.55-.07,1.85-.29,.53-.39,1.11-.69,1.74-.98,.14-.07,.3-.01,.4,.11,.05,.08,.13,.16,.22,.23,.36,.28,.85,.33,1.28,.13,.81-.37,1.51-.9,2.17-1.42,.08-.06,.16-.12,.23-.18,.24,.21,.58,.34,1.09,.24h.07c.79-.24,1.36-.63,1.86-1.05,.17-.13,.42-.09,.51,.11,.1,.21,.25,.41,.47,.55,.27,.17,.72,.3,1.34,0,1.18-.45,2.18-1.18,3.15-1.87,.29-.21,.57-.42,.85-.61,.12,.12,.27,.23,.49,.3,.25,.08,.54,.07,.81-.02,1.19-.42,2.23-1.09,3.22-1.78,.13-.09,.3-.07,.42,.03,.13,.12,.29,.2,.47,.24,.77,.18,1.83-.42,3.39-1.52,.14-.1,.25-.18,.33-.23,.14,.05,.35,.1,.62,.07l.11-.02c.82-.21,1.52-.66,2.19-1.09l.36-.24c.08-.05,.18-.14,.3-.24,.05-.04,.13-.11,.21-.18,.18,.19,.4,.32,.63,.37,.13,.03,.21,.15,.23,.28,.13,.94,.53,2.05,1.36,2.41,.27,.12,.74,.22,1.32-.09,.12-.06,.26-.06,.36,.03,.34,.25,.65,.32,.89,.33,.36,0,.87-.13,1.36-.78l.09-.12c.23-.31,.36-.47,.57-.56,.12-.04,.23-.11,.32-.17,.2,.17,.43,.28,.67,.32,.38,.06,.73-.07,1.01-.34,.32,.16,.72,.16,1.02-.1,.18-.16,.31-.18,.53-.07,.07,.03,.13,.05,.2,.05,.13,.41,.36,.89,.86,1.13,.07,.04,.1,.06,.21,.32l.05,.12c.22,.49,.6,1.16,1.28,1.26,.17,.03,.39,.02,.63-.08,0,0,0,.03,0,.04l.08,.37,.32-.2c.51-.32,.97-.88,1.31-1.59,.16,.79,.48,1.53,.91,2.17-1.43,1.19-2.17,3.13-1.85,4.86l.07,.37,.32-.19c.53-.31,1.02-.88,1.39-1.6,.16,1,.55,1.94,1.13,2.72-1.42,1.49-1.75,3.24-1.28,4.89l.1,.37,.3-.23c.48-.35,.91-.93,1.21-1.65,.08,.5,.22,.97,.41,1.41,.41,.93,.33,1.16,1.11,1.75-.15,.2-.27,.43-.38,.66-2.53-1.06-5.59-1.84-9.17-1.84h0c-2.68,0-5.47,.45-8.29,1.33-3.9,1.22-6.77,1.63-8.88,1.61,0,0,0,0,0,0,.2-.32,.38-.63,.52-.97,.18-.44,.32-.89,.38-1.36,.04-.32,.04-.64,0-.96h0s0-.07,0-.07c-.03-.17-.06-.34-.1-.5l-.03-.13c-.29-1.02-1.21-1.82-1.95-2.47-.75-.66-1.61-1.41-2.82-1.56-.97-.12-2.06,.08-3.35,.61-2.09,.84-2.82,.6-3.47,.4l-.15-.05c-.74-.27-2.34-1.44-2.36-1.45l-.67-.5,1.07,3.16-3.4,.3,.3,.39c.05,.06,1.14,1.42,3.88,2.34,.62,.18,1.22,.26,1.78,.26,1.7,0,3.11-.68,4.3-1.25,.45-.22,.87-.42,1.27-.57,.45-.16,.91-.27,1.37-.32-.38,1.5-1.69,2.54-2.23,2.9l-.29,.18,.02,.13c.15,1.11,1.05,6.71,3.95,8.58,.85,.56,1.85,.79,3,.79,.44,0,.9-.04,1.38-.1-.18,1.88-.32,3.75-.41,5.6l-20.8-13.61-.94-4.67s-8.7-1.89-8.7-1.88c-.38-.03-.74,.14-.95,.47-.24,.36-.22,.82,.03,1.16l5.13,7.11,4.61-1c-.33,4.33-.52,8.55-.55,12.56l-2.27-1.49-.94-4.67s-8.7-1.88-8.7-1.88c-.37-.04-.73,.14-.94,.46-.24,.36-.23,.82,.02,1.17l5.13,7.11,4.47-.97c-3.18,23.99,.39,40.3,3.97,49.77,3.68,9.73,8.01,14.36,8.72,15.07,1.17,1.37,8.87,9.74,20.8,9.74,5.16,0,11.1-1.59,17.61-5.99-2.03,6.67-7.26,14.54-7.32,14.62l-.29,.43,.52-.02c2.37-.08,4.24,.12,5.67,.4l-.88,3.6c-.12,.33-.09,.59-.09,.59-.01,.19,.05,.59,.4,.91,.55,.5,1.54,.63,2.97,.39,.65-.11,1.14-.12,1.55-.08l.13,3.81c-.01,.06,0,.14,0,.22,.01,.09,.04,.18,.11,.27,.47,.71,2.17,1.08,5.07,1.08s4.59-.36,5.06-1.08c.12-.18,.14-.36,.11-.5l.14-3.8c.4-.04,.9-.03,1.55,.08,1.42,.24,2.42,.11,2.96-.39,.35-.32,.42-.72,.41-.89,0-.08,0-.17,0-.25-.03-.23-.1-.44-.16-.67-.09-.36-.18-.72-.27-1.09-.1-.43-.21-.86-.32-1.29-.07-.28-.14-.57-.21-.84,0-.03,0-.04-.02-.07,1.44-.28,3.31-.48,5.67-.4l.51,.02-.29-.43c-.05-.08-5.3-7.97-7.33-14.65,6.53,4.43,12.48,6.02,17.65,6.02,11.92,0,19.69-8.43,20.87-9.79,.19-.19,4.68-4.61,8.61-15.01,3.59-9.48,7.16-25.78,3.98-49.77l4.47,.97,5.14-7.11c.25-.35,.26-.8,.02-1.17m-12.09-9.66l6.71-1.46-4.02,5.56-3.36-.73,.68-3.38Zm-115.62,4.1l-4.02-5.56,6.71,1.46,.68,3.38-3.37,.73Zm-3.64,12.26l-4.02-5.56,6.71,1.45,.68,3.38-3.37,.73Zm107.03-4.59l9.56-6.26c.33,4.37,.5,8.61,.51,12.64l-10.89,7.13c.45-4.08,.72-8.52,.82-13.51m-10.64,6.97l4.54-2.97c-.21,5.01-.62,9.54-1.27,13.8l-3.53,2.31c.33-4.14,.44-8.51,.26-13.13m-.43,14.93l5.65-3.7c-.33,7.77-1.37,15.53-3.79,22.92-1.22,3.78-2.82,7.46-4.75,10.97-1.91,3.47-4.19,6.77-6.73,9.82-1.33,1.61-2.73,3.13-4.18,4.6-1.05-1.01-1.83-1.91-2.31-2.51,7.51-9.37,14.26-23.22,16.12-42.12m-24.75,41.81c-.15-.24-.4-.33-.6-.4l-.1-.04c-.13-.04-.2-.13-.2-.15,0-.02,.08-.08,.13-.11,.07-.05,.13-.1,.22-.18,.29-.38,.29-.83,0-1.23-.41-.56-1.25-.86-1.82-.67-.26,.06-.49,.18-.71,.3-.11,.05-.22,.11-.35,.16-.16,.07-.55,.21-.81,.02-.08-.05-.16-.15-.24-.25-.1-.13-.21-.27-.38-.38-.24-.16-.54-.18-.76-.19l-3.07-.19c-.4-.04-.66,.09-.83,.44-.07,.06-.2,.06-.41,.05-.18,0-.37,0-.55,.06-.33,.1-.52,.36-.68,.59-.1,.14-.2,.27-.31,.35-.29,.22-.7,.16-1.14,.1-.21-.03-.42-.06-.62-.07-.57-.02-1.39,.24-1.81,.78-.24,.32-.32,.67-.2,1.06,.03,.08,.08,.15,.13,.22,.03,.04,.06,.08,.07,.13,.07,.15,0,.36-.15,.5-.18,.19-.47,.22-.79,.26-.36,.03-.77,.08-1.08,.39-.1,.1-.16,.23-.21,.33-.05,.1-.1,.18-.15,.23-.05,.05-.14,.09-.24,.13-.08,.04-.18,.08-.26,.14-.58,.38-.58,1.07-.58,1.68,0,.27-.01,.48-.04,.65-4.86-4.65-9.82-11.16-13.76-19.66h3.99c.09,.18,.17,.36,.26,.54,.56,1.23,1.15,2.5,2.24,3.36,.29,.32,.5,.69,.72,1.09,.21,.38,.43,.76,.71,1.11,.42,.5,.95,.86,1.47,1.2,1.44,.98,3.07,2.09,4.93,2.48,.45,.1,.91,.15,1.36,.19,.55,.06,1.07,.12,1.58,.25,.37,.1,.72,.23,1.09,.37,.31,.11,.61,.23,.92,.32,1.16,.35,2.36,.39,3.53,.44,1.97,.08,4.01,.16,5.97-.36l.29-.08c.96-.26,1.97-.53,2.65,0,.26,.21,.47,.54,.67,.86,.35,.56,.71,1.14,1.47,1.2,.19,0,.23,.03,.23,.04,.04,.04,.04,.23,.04,.38,0,.1,0,.2,.01,.33,.06,.36,.32,.63,.71,.74,.1,.03,.21,.04,.32,.04,.34,0,.66-.14,.85-.39,.49-.61,.24-1.52-.3-1.99l-.05-.03c-.05-.05-.11-.1-.13-.13,0-.03-.02-.1,.12-.29,.76-1.06,1.99-1.77,3.28-1.89,.1-.01,.2-.02,.31-.02,.45-.03,.92-.06,1.33-.32l.38-.25-.41-.21c-.28-.14-.54-.31-.78-.51,.97-.54,2.01-.71,3.15,.55-2.95,4.52-6.16,8.22-9.32,11.13-.07-.1-.11-.24-.13-.42l-.02-.07c-.05-.11-.12-.2-.18-.28-.04-.06-.08-.12-.11-.16-.03-.08-.03-.19-.03-.3,0-.1,0-.21-.03-.3-.1-.52-.55-.94-1.26-1.18-.2-.07-.26-.11-.28-.14,.05-.22,.21-.45,.36-.7,.3-.46,.63-.97,.38-1.62m-15.69-64.47c-8.37,2.93-15.01,.89-18.9-1.19,.82-.23,1.65-.46,2.54-.69,7.63-1.47,13.35-.22,16.38,.8-.05,.36-.05,.72-.02,1.08m2.94,.32c.47,.63,1.04,1.17,1.7,1.53l.33,.17,.06-.36c.11-.67,.03-1.45-.21-2.24,.55-.29,1.11-.6,1.67-.93,.12,.29,.25,.57,.41,.83l.2,.33,.24-.3c.21-.28,.39-.6,.54-.97,5.49,3.29,10.48,4.43,14.77,4.43,5.25,0,9.44-1.7,12.14-3.24,.04-.02,.27-.16,.44-.27,1.08,.3,2.08,.57,3.02,.79,.01,.17,.02,.36,.03,.44,.87,8.93,.72,17.02-.17,24.3h-61.62c-.93-7.4-1.11-15.62-.23-24.71,.96-.22,1.98-.49,3.08-.8,4.4,2.61,13.05,5.66,23.62,1.01m-5.17-18.75h0c-.02-.09-.05-.17-.07-.26,.52,.47,1.14,.82,1.79,.99l.36,.1-.03-.37c-.06-.79-.47-1.67-1.11-2.43h0c-.44-.49-1.1-1.04-1.8-1.32,.09-.42,.13-.88,.12-1.36l1.81,1.4,.5,.71,.04,1.47c.07,.13,.15,.24,.24,.35,.06,.07,.1,.14,.15,.21l.05,.07c.05,.07,.1,.16,.1,.21,0,.56,.17,1.08,.5,1.61-.06,.07-.12,.15-.18,.22-.13,.17-.26,.34-.41,.49-.32,.35-.53,.73-.68,1.18-.51-.38-1.08-.78-1.31-.89,.12-.72,.1-1.54-.07-2.37m.68-20.09c-.02,.35-.06,.69-.13,1.05-.11,.56-.31,1.14-.57,1.67-.44,.83-1.04,1.51-1.65,1.89,0-1.31,.5-2.66,1.36-3.66,.32-.37,.65-.68,1-.94m-.4-.95c-1.05-.14-1.94,.15-2.64,.86,0,0-.02,0-.03,.02-.03-.28,.07-.5,.16-.71,.09-.19,.19-.35,.29-.49,.24-.31,.55-.57,.94-.8,.22-.12,.45-.16,.67-.16,.21,0,.41,.04,.6,.08,.21,.06,.33,.21,.39,.48,.04,.2,.03,.34-.12,.71h-.04c-.07,.01-.15,.02-.22,.01m-1.58,9.56h0c.01-.22,0-.45,0-.66,.47,.63,1.08,1.14,1.78,1.43l.34,.14,.02-.37c.05-.79-.22-1.72-.75-2.57h0c-.35-.52-.9-1.13-1.52-1.52,.7-.42,1.37-1.17,1.87-2.1h0c.27-.53,.47-1.11,.59-1.67,.19,.63,.47,1.22,.74,1.68,.5,.82,1.21,1.5,2.02,1.94-.88,1.58-.97,3.49-.19,4.97l.18,.34,.25-.28c.46-.52,.77-1.32,.89-2.23,.49,1.01,1.2,1.85,2.06,2.4-.3,.25-.57,.58-.83,.92-.76,1.03-1.11,2.4-.93,3.66l.06,.37,.33-.18c.63-.34,1.23-1.03,1.64-1.92,.19,1.11,.65,2.12,1.33,2.92-.66,.43-1.25,1.01-1.66,1.68-.46,.75-.71,1.67-.71,2.56v.38s.35-.12,.35-.12c.6-.21,1.2-.7,1.7-1.38-.06,1.15,.17,2.28,.69,3.24-.33,.15-.66,.33-.99,.56-1.04,.73-1.79,1.91-2,3.17l-.06,.36,.36-.05c.64-.1,1.33-.48,1.94-1.07-.28,1.33-.13,2.75,.42,3.92-.4,.45-.74,.97-1.04,1.58-.56,1.14-.75,2.46-.58,3.7-.77-.69-1.76-1.47-2.93-2.24-.09-.32-.19-.62-.3-.83h0c-.07-.13-.14-.26-.21-.38,.46,.18,.95,.27,1.44,.27,.13,0,.25,0,.38-.02l.35-.04-.13-.33c-.28-.72-.94-1.45-1.77-1.94h0s-.11-.05-.18-.08c-.04-.57-.2-1.12-.85-1.21-.23-.02-.47,.02-.7,.06-.05,.01-.1,.02-.14-.01-.03-.02-.05-.06-.06-.1-.15-.46-.24-.93-.28-1.4,.36,.27,.75,.49,1.17,.61l.35,.11v-.36c-.01-.79-.36-1.69-.95-2.49h0c-.05-.07-.17-.18-.33-.32,.05-.14,.11-.28,.19-.41,.33-.55,.7-1.08,1.1-1.57,.07-.07,.15-.16,.25-.14-.42-.26-.69-.55-.78-1.05-.07-.37-.09-.79,0-1.16,0-.07,.04-.14,.1-.16-.27-.07-.47-.34-.55-.62-.07-.26-.1-.62-.06-.88l.02-.14-1.1-1.65s-1.11-.03-1.75-.99c-.01-.02-.03-.04-.04-.05-.02-.18-.04-.37-.07-.55,.44,.38,.94,.66,1.47,.82l.35,.11v-.37c-.04-.78-.41-1.69-1.01-2.48h0c-.49-.62-1.16-1.12-1.86-1.45,.34-.66,.56-1.48,.63-2.37m-.47-3.13c.57,.34,1.1,.92,1.41,1.39,.38,.59,.61,1.25,.67,1.83-.53-.3-1-.74-1.34-1.26-.21-.33-.38-.68-.51-1.07-.05-.19-.1-.37-.16-.55-.02-.11-.05-.22-.07-.34m3.07-5.44c.75,.47,1.41,1.14,1.88,1.89,.49,.82,.77,1.73,.8,2.51-.71-.4-1.34-1-1.78-1.73-.51-.86-.84-1.83-.91-2.66m2.84,5.3c.21,.57,.32,1.33,.28,2.06-.06,.71-.26,1.37-.55,1.85-.47-1.2-.37-2.68,.27-3.91m.62-.15c.73,.5,1.37,1.2,1.81,1.97,.38,.7,.61,1.45,.68,2.14v.3c-1.44-.74-2.34-2.53-2.49-4.41m2.44,5.42c0,.09,0,.17,0,.25-.01,.13-.03,.25-.03,.38-.06,.5-.18,.98-.37,1.43-.28,.63-.68,1.18-1.1,1.52-.04-1,.27-2.03,.88-2.86,.19-.24,.41-.51,.63-.72m2.76,8.89c.01,.93-.17,1.82-.49,2.49l-.09-.04c-.57-1.11-.76-2.48-.51-3.78,.1-.45,.23-.97,.41-1.39,.41,.83,.65,1.78,.68,2.71m-.28-3.93c.52,.38,1,.91,1.32,1.48,.34,.62,.54,1.29,.56,1.88-.77-.51-1.38-1.36-1.67-2.34-.08-.32-.18-.68-.21-1.02m-1.38,18.26c-.2,.41-.44,.76-.69,1.04-.31-1.27-.15-2.71,.44-3.91,.22-.45,.46-.85,.73-1.2,.07,.33,.1,.68,.12,1.04,.02,.32,0,.65-.02,.99-.19,.42-.35,.88-.47,1.38-.05,.23-.09,.44-.12,.66m.02,1.79s-.04,.02-.06,.04c-.1-.11-.21-.23-.33-.35,.11-.11,.23-.24,.33-.38,0,.24,.03,.47,.07,.7m-3.92-.55c.7,.53,1.33,1.27,1.74,2.06,.42,.86,.65,1.79,.62,2.57-1.02-.7-1.8-1.85-2.13-3.15-.1-.46-.22-1.01-.23-1.48m.06,2.57s-.1,.04-.14,.06c-.08-.03-.19-.08-.29-.13,.04-.12,.09-.24,.13-.37h0c.02-.08,.03-.15,.05-.22,.07,.22,.15,.44,.25,.66m1.99-1.02c-.51-.86-1.23-1.65-2.04-2.18,0-.34-.07-.92-.18-1.51,1.24,.85,2.23,1.69,2.96,2.39,0,.04,.02,.08,.03,.12l.12,.36,.19-.15c.08,.08,.16,.16,.23,.24-.02,0-.04,.02-.06,.04-.29,.15-.56,.31-.84,.47-.14,.07-.27,.15-.41,.23m2.37-2.65c.19-.39,.34-.82,.46-1.28h0c.05-.25,.09-.5,.12-.74,.13,.3,.25,.62,.34,.96,.15,.55,.24,1.16,.24,1.76-.02,.96-.24,1.87-.61,2.52-.48-.97-.66-2.11-.54-3.23m.56-4.47c.47,.47,.85,1.03,1.11,1.64,.25,.64,.36,1.29,.33,1.83-.9-.83-1.44-2.13-1.44-3.47m-.44-.93c-.46-1.21-.49-2.65-.05-3.93,.16-.48,.35-.9,.58-1.3,.1,.32,.19,.65,.25,1,.1,.57,.13,1.19,.07,1.79-.12,.95-.42,1.83-.85,2.45m-.87-3.97c-.47,.51-1,.89-1.51,1.06,.26-.96,.87-1.84,1.68-2.41,.28-.2,.56-.35,.83-.48-.05,.17-.13,.35-.21,.52l-.07,.15c-.19,.41-.44,.81-.74,1.16m-.05-13.46c.12,.16,.26,.31,.41,.45,.25,.46,.46,.95,.59,1.44,.15,.62,.2,1.24,.16,1.81l-.03,.21c0,.06,0,.12,0,.18-.02,.12-.04,.25-.06,.36l-.05,.03c-.82-.93-1.32-2.23-1.36-3.56,0-.27,0-.56,.01-.84,.02-.14,.04-.27,.04-.41,0-.02,0-.04,.01-.07,.1,.14,.19,.27,.28,.4m-.13-1.2c.62,.15,1.24,.45,1.74,.84,.54,.45,.97,1,1.2,1.54-.71-.13-1.39-.5-1.95-1.03-.28-.5-.61-.95-.99-1.35m.85,6.47c-.07,.62-.32,1.34-.69,1.97-.37,.59-.83,1.06-1.3,1.33,.07-.66,.28-1.31,.61-1.86,.35-.57,.83-1.07,1.37-1.44m-5.19,12.97c.59,.36,1.09,.84,1.38,1.34-.6-.01-1.21-.18-1.73-.5-.15-.09-.28-.18-.41-.28-.33-.18-.84-.78-.8-.74-.11-.13-.21-.25-.28-.38,.63,.04,1.29,.24,1.84,.56m-1.41-.95s.03-.05,.04-.07c.1-.15,.21-.24,.35-.3,.07-.03,.15-.05,.23-.05,.07,0,.13,.02,.19,.05,.05,.03,.09,.07,.11,.12,.03,.05,.06,.1,.06,.16,0,.08,.02,.15,.03,.22,0,.04,0,.09,0,.12-.32-.09-.68-.18-1.01-.25m-2.63-15.67c.43,.56,.73,1.19,.84,1.77-.59-.26-1.13-.7-1.55-1.27-.19-.5-.44-.97-.73-1.42-.04-.11-.08-.22-.11-.33,.59,.29,1.13,.73,1.54,1.24m-.55,4.55c.6,.26,1.2,.75,1.57,1.16,.46,.54,.78,1.16,.92,1.73-.56-.23-1.09-.59-1.5-1.07-.44-.5-.78-1.13-.99-1.79,0-.01,0-.02,0-.02m2.79,7.05c.43,.56,.71,1.2,.81,1.78-.84-.38-1.55-1.12-1.97-2.04-.13-.3-.27-.66-.35-.99,.58,.3,1.11,.74,1.51,1.25m-.1,5.23c.22,.26,.48,.49,.75,.71,.35,.39,.67,.82,.9,1.28,.42,.86,.64,1.78,.61,2.57-1.01-.69-1.79-1.84-2.12-3.15-.02-.13-.05-.26-.08-.39-.02-.29-.07-.58-.13-.86,0-.08-.01-.16-.02-.23,.03,.03,.06,.05,.09,.07m2.02,7.45c-.21,.65-.53,1.22-.9,1.62-.09-.61-.04-1.25,.14-1.84,.22-.67,.56-1.3,.94-1.74,.07,.65,0,1.33-.18,1.96m11.7,.95c2.36-1,8.74-3.09,17.83-1.35,.81,.21,1.58,.43,2.33,.64-4.78,2.51-11.7,4.17-20.16,.71m24.77,26.76c-1.15,8.37-3.29,15.65-6.01,21.89h-23.93v-.65l1.62-3.43-1.54-4.65c.81,.12,1.65,.37,2.46,.83,.16,.68,.94,3.51,2.23,3.94,.47,.16,1.03,.22,1.6,.22,1.11,0,2.26-.26,2.74-.56l.31-.2-.28-.23s-.97-.69-1.89-1.64c-1.25-1.29-1.21-3.69-1.14-4.95,0-.11,.02-.25,.04-.44,.18-1.8,.71-7.3-3.93-8.19-.99-.19-2.02-.19-3.01,0-.87,.16-1.73,.44-2.53,.83-.66,.32-1.3,.71-1.89,1.15-.35,.26-.73,.51-1.04,.82-.37,.39-.44,.78-.52,1.29-.06,.46-.11,.91-.1,1.38,0,.25,0,.57,.16,.78,.33,.46,.66,.34,.9,.26,.05-.01,.1-.04,.16-.05,.09,.67-.23,3.31-.61,5.67l-.09,.57,.49-.29s1.59-.93,3.69-1.2l-1.54,4.66,1.67,3.43v.65h-23.17c-2.74-6.25-4.9-13.53-6.08-21.89h61.24Zm-15.38,31.88c.21,.2,.44,.39,.68,.55-.19,.04-.41,.06-.62,.07-.1,0-.21,.02-.32,.03-1.45,.14-2.82,.92-3.66,2.11-.08,.11-.32,.45-.18,.8,.07,.16,.18,.25,.28,.33l.04,.04c.35,.3,.53,.89,.24,1.26-.15,.19-.43,.22-.62,.17-.09-.03-.3-.1-.32-.28,0-.1,0-.19,0-.27,0-.28,0-.57-.21-.76-.14-.13-.35-.19-.58-.17-.45-.04-.72-.47-1.03-.96-.23-.36-.46-.73-.79-.99-.89-.7-2.07-.38-3.11-.1l-.28,.08c-1.89,.5-3.89,.42-5.81,.35-1.14-.04-2.31-.09-3.41-.41-.3-.09-.59-.2-.88-.31-.37-.14-.75-.28-1.14-.38-.55-.15-1.11-.21-1.66-.26-.44-.05-.88-.1-1.31-.19-1.75-.36-3.34-1.45-4.74-2.4-.49-.33-.99-.66-1.36-1.11-.26-.31-.46-.66-.66-1.03-.23-.41-.47-.82-.82-1.22-1.02-.82-1.56-1.97-2.13-3.2-.05-.1-.1-.21-.15-.31h43.31c-1.44,3.12-3.01,5.96-4.67,8.55-1.54-1.61-3.01-1.02-4.03-.38l-.29,.18,.25,.24Zm-17.71-14.1l1.54-4.68c.37-.02,.73-.02,1.11,0l1.55,4.68-1.55,3.29v.82h-1.02v-.77l-1.63-3.34Zm6.99-10.71c-.55-1.24-1.61-2.33-2.94-2.55-1.1-.18-2.21,.25-3.19,.8-.81,.45-1.57,.99-2.27,1.61-.32,.29-.63,.58-.98,.82-.14,.09-.37,.28-.54,.28-.18,0-.25-.24-.25-.38-.01-.56,.03-1.13,.11-1.69,.03-.16,.06-.33,.13-.48,.1-.21,.27-.36,.44-.5,1.81-1.57,4.13-2.63,6.52-2.63,.96,0,1.94,.18,2.75,.7,1.14,.74,1.77,2.09,1.99,3.43,.22,1.35,.08,2.71,.03,4.07-.06,1.36-.03,2.76,.48,4.02,.47,1.13,1.32,2.1,2.38,2.7-.91,.33-1.91,.43-2.87,.31-.32-.04-.65-.1-.91-.29-.3-.2-.5-.52-.68-.83-.4-.73-.7-1.53-.9-2.34-.04-.16-.08-.33-.19-.46-.07-.09-.18-.15-.28-.21-1.26-.69-2.74-.97-4.17-.9-1.44,.07-2.85,.49-4.16,1.09,.31-1.71,.49-3.44,.54-5.18,0-.09,0-.19,.03-.27,0-.02,.01-.05,.02-.07,.04-.1,.13-.17,.21-.24,1.01-.92,2.1-1.75,3.33-2.35,.9-.43,1.95-.72,2.89-.38,.54,.2,.98,.59,1.33,1.05,1.04,1.36,1.25,3.15,1.43,4.86,.17,0,.34-.01,.51-.02-.12-1.35-.24-2.73-.79-3.96m32.56-46.67c.72-.63,1.48-1.3,2.54-1.42,.88-.11,1.89,.08,3.09,.57,2.28,.91,3.1,.65,3.83,.41l.15-.05c.5-.18,1.28-.68,1.84-1.06l-.76,2.25,3.03,.27c-.5,.45-1.53,1.22-3.23,1.78-2.33,.65-4.12-.21-5.7-.97-.46-.22-.9-.43-1.31-.58-1.63-.6-3.42-.5-4.88,.24,.37-.54,.91-1.01,1.41-1.44m-1.8,2.31c.9-.65,2.02-.97,3.16-.96,.34,1.62,1.6,2.74,2.3,3.24-.52,.49-1.8,1.34-4.54,1.47-.32-.43-1.39-2.06-.92-3.75m-16.88,1.36h0c2.63,0,5.37,.44,8.14,1.3,9,2.75,13.01,1.29,14.34,.21-.32,1.82-1.28,6.04-3.61,7.54-2.15,1.4-5.5,.47-10.13-.84-1.05-.29-2.15-.6-3.32-.91-9.86-1.9-16.62,.66-18.61,1.57-.41-.18-.82-.37-1.24-.57-.08-.05-.16-.1-.25-.16-.33-.21-.68-.4-1.02-.59-.29-.16-.56-.32-.85-.47-.02-.01-.04-.03-.06-.04,2.09-2.2,7.69-7.06,16.62-7.06m-10.38,.92c.05,.09,.1,.18,.15,.26,.07,.12,.14,.25,.15,.38,0,.31-.36,.41-.6,.32-.4-.17-.82-.52-1.14-.81-.4-.38-1.39-1.73-.54-2.14,.46-.22,.91,.29,1.15,.61,.32,.43,.57,.91,.84,1.38m.08-27.37c.9-1.44,.4-3.45-.05-4.81l-.07-.26c-1.09-3.66-1.7-6.57,1.09-8.03,1.52-.77,3.52-1.08,6.1-.95,6.31,.31,12.73,2.63,19.09,6.88,7.44,4.98,14.25,10.19,20.82,15.93,.97,.85,2,1.71,2.99,2.54,2.57,2.16,5.22,4.38,7.46,6.86,.63,.7,1.24,1.38,1.51,2.17-.58-.24-1.14-.62-1.72-1.02-.42-.29-.87-.58-1.31-.83-.85-.51-1.29-.8-2.03-1.52-.32-.27-.76-.26-1.07,.01-.31,.28-.36,.73-.12,1.08,.16,.22,.24,.35,.3,.47-.16-.08-.35-.2-.51-.32l-.04-.03c-.5-.32-1-.74-1.48-1.15-.4-.33-.81-.68-1.21-.96l-2.52-1.78,1.5,2.7c.11,.19,.2,.4,.27,.61-.01,0-.02-.01-.02-.02-.82-.6-1.73-1.02-2.61-1.42l-.34-.16c-.3-.15-.66-.12-.93,.08-.23,.16-.35,.41-.36,.67-.65-.36-1.24-.82-1.86-1.32-.17-.13-.33-.27-.5-.4l-.62-.48-.41,.67c-.04,.07-.08,.13-.12,.21,0,0,0,0-.01,.02-.65-.21-1.11-.6-1.63-1.05-.25-.22-.52-.44-.81-.66-.27-.2-.62-.23-.92-.08-.3,.15-.48,.44-.49,.78v.05c0,.18,0,.49-.04,.68-.02,0-.04,0-.07-.02-1.01-.39-1.89-1.04-2.83-1.71-.51-.37-1.03-.74-1.57-1.08l-.6-.37-.37,.6c-.06,.1-.1,.19-.13,.27-1.18-.45-2.26-1.22-3.31-1.96l-.25-.17c-.15-.12-.62-.47-1.1-.16-.14,.09-.36,.3-.35,.72-.34-.14-.94-.48-2.02-1.24-.17-.13-.31-.23-.37-.26-.48-.34-.85-.27-1.15-.15-.02,0-.04,.01-.07,.02-.07,0-.21-.07-.29-.12-.59-.28-1.18-.62-1.72-.99-.05-.03-.1-.09-.17-.14-.36-.32-.86-.74-1.45-.63-.27,.06-.5,.21-.66,.47-.34-.13-.62-.11-.87,.05-.41,.27-.39,.75-.38,.93,.03,.49-.09,.99-.36,1.59-.08,.19-.15,.24-.15,.25-.01,0-.11-.02-.3-.16-.02-.02-.04-.03-.05-.05-.14-.12-.43-.38-.84-.31-.18,.02-.43,.13-.63,.44-.14,.18-.22,.23-.22,.24-.02,0-.11-.05-.24-.23l-.08-.1c-.26-.35-.58-.77-1.16-1.01-.03-.04-.07-.1-.1-.15l-.08-.13c-.17-.26-.47-.41-.77-.38-.32,.03-.59,.22-.71,.5l-.03,.07c-.14-.15-.36-.33-.68-.36-.25-.03-.46,.05-.61,.15-.44-.26-.94-.31-1.44-.15-.26-.06-.46,0-.6,.06-.4,.19-.51,.58-.55,.71-.04,.15-.13,.47-.2,.53-.57,.27-.77,.73-.89,1.04l-.03,.07c-.08,.17-.14,.28-.19,.36-.2-.16-.46-.21-.71-.16-.27,.06-.5,.25-.61,.51-.19,.45-.6,.77-1.09,1.1h0c-.02-.08-.04-.21-.06-.33-.04-.19-.07-.42-.16-.65l-.66-1.8-.73,1.98c-.04,.11-.08,.21-.13,.34-.18,.53-.82,1.01-1.22,.98-.08,0-.24,0-.36-.46-.01-.04-.01-.07-.02-.11-.02-.2-.07-.53-.32-.83l-.58,.46c-.17-.84-.76-1.72-.86-1.93-.17-.37-.05-1.05,.37-1.86,.43-.82-.68-2.78-.68-2.78,1.53-1.84,.7-4.19-.07-5.6,.52-.25,.94-.6,1.22-1.07m-2.92,.6c.12,.14,.29,.27,.68,.33,.02,.02,.05,.04,.07,.07,.62,.73,.91,1.5,1.17,2.41,.13,.5,.19,1.03,.06,1.53-.1,.38-.3,.76-.58,1.04-.19,.18-.35,.39-.55,.55-.03,.03-.09,.06-.15,.1-.45,.23-1.22,.52-2.48,.69,0,0-.89,.63,2.72-.11,.2,.23,.38,.47,.55,.73,.21,.33,.33,.53,.23,.92,0,.3-.22,.68-.32,.97-.12,.32-.21,.65-.18,1,.06,.85,.86,1.34,1.07,2.12,.11,.42,0,.89-.27,1.22-.1,.13-.41,.27-.45,.41-.05,.13,.1,.36,.11,.5,.03,.27,.01,.62-.06,.88-.08,.28-.27,.54-.55,.62,.07,.02,.09,.09,.1,.15,.08,.38,.07,.79,0,1.17-.1,.49-.37,.79-.79,1.05,.1-.02,.18,.06,.25,.14,.41,.49,.77,1.03,1.1,1.57,.36,.59,.44,1.43,.46,2.11,.02,.73-.09,1.46-.31,2.14-.01,.04-.03,.08-.06,.1-.04,.03-.09,.02-.14,.01-.24-.04-.47-.09-.71-.06-.78,.1-.85,.88-.86,1.53l-1.12-1.23h0s-.64,2.17-2.73,2.46c0,0,1.8,.32,3.19-1.58,.09,.16,.17,.31,.27,.46,.26,.41,.59,.79,.95,1.13,.35,.33,.74,.72,1.18,.95,.04,.02,.08,.03,.12,.05-2.9,1.58-4.87,3.43-5.89,4.53-.1-.07-.21-.13-.32-.2,.04-.25,.06-.52,.06-.78h0c0-.49-.05-.97-.14-1.44,.16,.16,.32,.3,.5,.42l.32,.23,.1-.37c.18-.72,.08-1.66-.29-2.58h0c-.34-.82-.89-1.57-1.56-2.12,.46-.68,.79-1.62,.91-2.65h0c.04-.39,.04-.79,0-1.18,.54,.7,1.24,1.25,2.02,1.52l.35,.12v-.37c0-.78-.33-1.7-.92-2.52h0c-.48-.64-1.13-1.17-1.83-1.53,.36-.74,.55-1.7,.54-2.73h0c0-.3-.04-.6-.09-.89,.37,.42,.8,.77,1.29,1.02l.33,.16,.04-.37c.1-.78-.12-1.73-.6-2.62h0c-.42-.74-1.05-1.39-1.75-1.83,.05-.64,0-1.35-.19-2.06h0c-.05-.21-.13-.41-.21-.62,.59,.36,1.24,.57,1.88,.61l.36,.02-.09-.35c-.2-.76-.74-1.56-1.52-2.19h0c-.61-.5-1.39-.83-2.15-.98-.06-.79-.32-1.66-.76-2.48h0c-.56-.99-1.43-1.87-2.39-2.42l-.13-.07c-.04-.87-.34-1.85-.88-2.76h0c-.28-.45-.62-.86-1.01-1.24,.13,.05,.24,.08,.31,.1,.31,.08,1.03,.84,1.3,1.09,.1,.1,.3,.17,.49,.22l.05,1.08s.62-1.03,1.29-1.1c0,0,1.56,.65,1.75,2.24,.1,.79,.11,1.82,.28,2.59,.03,.15,.07,.3,.18,.41,.11,.12,.27,.15,.43,.18,.95,.17,2.02,.06,2.87-.44,.41-.24,.87-.59,.9-1.1,.04-.65-.14-1.28-.38-1.87-.14-.38-.31-.75-.52-1.1-.11-.18-.23-.35-.35-.52-.15-.19-.33-.32-.49-.49-.05-.05-.07-.09-.09-.12,.76-.05,2.82-.07,4.02,1.39m-4.81,19.77c.58,.32,1.11,.77,1.5,1.3,.41,.57,.69,1.22,.78,1.8-.83-.42-1.54-1.18-1.94-2.13-.12-.3-.26-.65-.34-.98m-1.61-23.83v.17c-.02,.19-.03,.38-.07,.55-.12,.52,.15,.85,.45,1.14,.08,.07,.16,.12,.24,.17,.04,.02,.07,.05,.1,.07,.83,.58,1.5,1.31,2,2.18,.34,.6,.76,1.33,.9,2.01,.12,.59-.39,1.1-.86,1.36-.66,.36-1.46,.45-2.19,.26-.08-.02-.16-.05-.22-.1-.09-.1-.09-.26-.09-.4,.02-.32,.02-.61,0-.94l-.04-.42c-.01-.06-.02-.13-.03-.2v-.05c-.06-1.42-.72-2.57-2.01-3.51-.24-.17-.57-.36-.99-.22-.1,.03-.2,.04-.3,.05-.05,0-.1,0-.14,.01-.21,.02-.36-.02-.51-.16-.89-.82-1.9-1.36-2.98-1.59,0,0-.02-.02-.04-.03,.1-.55,.1-1.01-.07-1.54,.14-.1,.31-.15,.46-.24,.16-.11,.31-.24,.45-.38,.26-.23,.54-.46,.87-.48,.16-.01,.3,.03,.45,.07,.12,.04,.24,.04,.36,.05,.3,.04,.6,.05,.88-.06,.18-.07,.36-.19,.55-.15,.16,.04,.27,.16,.4,.24,.13,.08,.29,.11,.43,.16,.24,.07,.46-.01,.63-.09,.06-.02,.11-.05,.17-.07,.83,.47,1.22,1.16,1.18,2.11m-3.98-3.61c.59,.25,1.21,.02,1.21,.02l.1-.05c.4-.17,.7-.25,.97-.27,.29,0,.55,.07,.71,.22,.13,.11,.22,.27,.25,.37,.03,.07,.08,.25,.01,.43-.05,.07-.1,.13-.16,.19-.27,.24-.65,.28-.96,.11-.24-.13-.43-.38-.69-.44-.29-.06-.44,.15-.68,.26-.39,.17-.82-.04-1.25-.09-.82-.1-1.37,.4-1.88,.97-.19,.21-.48,.45-.78,.38-.13-.03-.22-.13-.33-.21-.15-.12-.3-.18-.48-.2-.33-.03-.66,.03-.97-.1-.5-.2-.43-.75-.15-1.11,.37-.48,1.3-.15,1.71,.13,.08,.06,.17,.12,.27,.12,.12,0,.21-.04,.3-.12l.18-.17c1.23-1.83,2-.7,2.6-.45m-9.11,18.77c-.17,.07-.34,.21-.48,.44-.04-.07-.09-.16-.15-.27l-.04-.09c-.13-.31-.32-.77-.88-1.04-.08-.06-.17-.38-.21-.53-.03-.13-.15-.52-.54-.71-.14-.07-.34-.12-.6-.06-.51-.16-1-.11-1.44,.15-.15-.09-.36-.17-.61-.15-.31,.02-.53,.2-.67,.36l-.03-.07c-.13-.28-.4-.48-.71-.5-.31-.02-.61,.12-.78,.38l-.08,.13s-.07,.12-.1,.15c-.58,.24-.9,.66-1.16,1.01l-.08,.1c-.13,.18-.22,.22-.22,.23-.03,0-.12-.06-.27-.26-.07-.1-.29-.4-.68-.43-.18-.02-.44,.02-.71,.28-.21,.21-.34,.25-.37,.26-.22-.08-.57-1-.55-1.83,0-.18,.03-.66-.38-.93-.24-.16-.53-.18-.86-.05-.15-.25-.39-.42-.66-.47-.58-.11-1.08,.32-1.45,.63-.07,.05-.12,.11-.15,.13l-.36,.22c-.58,.37-1.12,.72-1.7,.89-.01,0-.03-.01-.04-.01-.3-.11-.68-.19-1.13,.13-.1,.05-.25,.16-.44,.3-.66,.47-1.19,.8-1.58,1.02-.18,.09-.39,.02-.47-.17-.05-.15-.15-.29-.33-.39-.47-.27-.91,.08-1.08,.21l-.23,.16c-1.05,.74-2.13,1.52-3.31,1.96-.03-.08-.07-.17-.13-.27l-.37-.6-.6,.37c-.55,.34-1.06,.71-1.57,1.08-.94,.67-1.82,1.32-2.87,1.72,0,0-.02,0-.02,0-.04-.2-.04-.52-.04-.69v-.06c0-.33-.19-.63-.49-.77-.3-.15-.65-.12-.91,.08-.3,.22-.56,.44-.82,.66-.53,.46-.98,.85-1.64,1.05-.01-.04-.03-.08-.05-.11-.05-.15-.11-.31-.17-.46-.08-.21-.33-.27-.51-.14-.13,.1-.26,.21-.38,.29-.29,.21-.57,.42-.86,.65-.52,.41-1.01,.78-1.55,1.08,0-.27-.14-.52-.36-.67-.27-.2-.62-.23-.93-.08l-.34,.16c-.87,.4-1.78,.81-2.6,1.41,0,.01-.02,.02-.02,.02,.07-.2,.15-.4,.26-.59,0-.02,.02-.04,.02-.05,.08-.34,.24-.66,.29-1.01,.09-.5-.44-.47-.75-.27l-.6,.38s0,0-.02,.01c-.12,.09-.3,.24-.6,.5-1.21,1.03-2.08,1.68-2.59,1.95,.05-.12,.15-.25,.31-.49,.23-.34,.18-.79-.13-1.07-.3-.27-.76-.29-1.1,.01-.88,.84-1.81,1.4-2.8,2-.49,.29-.99,.59-1.5,.93-.24,.16-.51,.32-.74,.43,.27-.8,.88-1.49,1.54-2.21,2.22-2.46,4.88-4.69,7.45-6.84,.99-.83,2.01-1.68,2.98-2.54,6.57-5.74,13.38-10.95,20.83-15.93,6.35-4.25,12.77-6.57,19.09-6.88,2.01-.12,5.64-.02,7.28,1.91,.79,.93,1.07,2.54,.76,4.18-.76-.1-1.43,.99-1.43,.99-.4-.21-.85-.36-1.28-.29-.76,.11-1.13,.84-.94,1.56v.07c.04,.1,.07,.2,.1,.3-.02,.04-.05,.08-.1,.11-.03,.03-.07,.05-.11,.07-.05,.04-.11,.08-.16,.12-.1,.08-.19,.16-.3,.24-.18,.14-.38,.29-.55,.47-.79,.83-1.02,1.81-.68,2.95,0,.06,.03,.11,.05,.19,.37,1.01,.24-.65,1.17-1.09,.79-.38,1.48-.44,2.02-.4-.32,.26-.62,.55-.91,.88-.94,1.1-1.48,2.57-1.48,4.01-.06,0-.12,.02-.18,.04h0c-1.22,.28-2.31,1.38-2.58,2.65l-.07,.33h.35c.55-.04,1.04-.32,1.39-.57-.38,1.36-.32,2.79,.17,4.04-.88,.77-1.47,1.85-1.69,2.96m1.59-.65c-.04,.16-.09,.32-.13,.46-.22,.59-.53,1.09-.87,1.47-.04,.02-.08,.05-.14,.06-.11-1.25,.37-2.59,1.26-3.57-.08,.47-.11,.97-.12,1.42,0,.06,0,.11,0,.16m-.06-7.03c-.33,.3-.69,.53-1.03,.63,.31-.8,1.01-1.5,1.8-1.78,0,0-.01,.02-.01,.03-.13,.18-.23,.38-.33,.6-.13,.19-.27,.36-.43,.52m.52,.74c.11-.33,.24-.71,.39-1.05,.05-.09,.1-.17,.15-.25,.02,.05,.03,.1,.05,.15,.05,.21,.11,.42,.18,.62,.15,.65,.23,1.32,.19,1.97-.07,.83-.29,1.6-.6,2.2l-.17,.23-.04-.07c-.46-1.16-.52-2.54-.15-3.8m.07,6.32c.12-.54,.18-1.07,.15-1.56l.02-.03c.05,.08,.1,.16,.16,.23,.08,.22,.17,.43,.26,.63,.13,.28,.29,.54,.47,.79,.1,.26,.18,.52,.24,.78,.17,.83,.17,1.66,.02,2.35l-.33-.07c-.6-.88-.96-1.99-.99-3.12m.53,4.07c-.11,.43-.14,.91-.16,1.36-.05,.24-.11,.47-.19,.66-.27,.66-.65,1.21-1.06,1.57-.1-1.29,.44-2.67,1.41-3.64,0,0,0,.03,0,.05m1.08,8.07c-.21,.68-.53,1.27-.91,1.67-.22-1.28,.18-2.71,1.05-3.76,.11,.7,0,1.51-.14,2.09m.55-2.76s-.02-.03-.03-.04l-.14-.18-.05-.07c-.68-.94-1.07-2.15-1.05-3.38,0-.07,0-.13,0-.21,.09-.39,.15-.8,.16-1.22,.53,.71,.94,1.58,1.14,2.45,.19,.94,.17,1.89-.04,2.64m.65,4.69c-.45-1.04-.58-2.3-.38-3.56,.57,.69,1.02,1.55,1.26,2.42,.17,.63,.22,1.27,.17,1.91v.13s-.06,.36-.06,.36c0,.02,0,0,0,0-.02,.08-.02,.17-.04,.25-.34-.35-.68-.88-.95-1.51m.52,3.25c.13-.28,.29-.61,.46-.88,.03,.25,.07,.5,.11,.75,.04,.44,.02,.88-.05,1.3-.15,.71-.41,1.34-.76,1.79-.25-.94-.16-2.01,.24-2.96m-31.61-4.42c-.42,.15-.85,.36-1.31,.58-1.58,.75-3.37,1.62-5.7,.97-1.7-.57-2.73-1.34-3.23-1.78l3.03-.27-.76-2.25c.56,.38,1.34,.88,1.83,1.06l.15,.05c.73,.24,1.56,.5,3.83-.41,1.2-.5,2.21-.68,3.09-.57,1.05,.13,1.8,.79,2.54,1.42,.5,.44,1.03,.91,1.41,1.44-1.46-.74-3.25-.84-4.88-.24m2.1,.15c1.15-.01,2.27,.31,3.17,.96,.47,1.69-.6,3.32-.93,3.75-2.74-.13-4.02-.98-4.53-1.47,.69-.51,1.97-1.63,2.29-3.24m1.18,11.38c-2.33-1.5-3.29-5.73-3.6-7.54,1.33,1.08,5.33,2.54,14.33-.21,2.77-.87,5.51-1.3,8.14-1.3h0c3.5,0,6.47,.76,8.94,1.8-.51,1.22-.54,2.57-.09,3.72l.15,.36,.28-.26c.55-.51,.98-1.36,1.19-2.34,.44,1.01,1.13,1.88,1.98,2.46-.5,.51-.93,1.26-1.2,2.1-.03,.08-.04,.18-.06,.26-3.13-1.05-8.92-2.27-16.6-.79-1.08,.28-2.1,.57-3.08,.84-.08,.02-.16,.05-.24,.07-4.64,1.31-7.98,2.24-10.14,.84m3.62,8.37c-.16,4.5-.06,8.89,.29,13.15l-3.55-2.32c-.65-4.26-1.07-8.78-1.27-13.8l4.53,2.96Zm.45,14.95c1.16,11.61,4.24,22.25,9.16,31.52,2.02,3.83,4.39,7.4,6.96,10.63-.47,.58-1.23,1.45-2.23,2.42-1.47-1.48-2.87-3.01-4.2-4.62-2.54-3.05-4.82-6.36-6.73-9.83-1.94-3.52-3.53-7.19-4.75-10.97-2.41-7.35-3.45-15.07-3.79-22.79l5.58,3.65Zm-20.65-28.16l9.56,6.26c.1,4.98,.37,9.42,.82,13.5l-10.88-7.12c.01-4.02,.18-8.27,.5-12.64m8.62,75.36s-4.69-4.6-8.5-14.74c-3.48-9.24-6.94-25.12-3.93-48.47l11.43,7.48c.03,1.39,.06,2.77,.11,4.15,.3,7.97,1.34,15.94,3.82,23.52,1.22,3.78,2.81,7.46,4.75,10.97,1.91,3.47,4.19,6.78,6.73,9.83,2.32,2.8,4.86,5.39,7.56,7.81-4.92,3.26-12.21,5.62-20.82,.66-.56-.55-.95-.98-1.14-1.21m2.69,2.62c2.98,1.42,5.81,1.99,8.4,1.99,8.97,0,15.36-6.78,17.39-9.24,2.52,3.09,5.23,5.84,8.05,8.14-16.19,10.93-28.54,3.62-33.84-.89m28.05,16.55c1.13-1.75,5.43-8.65,7.19-14.56,1.1,.83,2.22,1.6,3.34,2.29l-1.77,13.79c-.93-.48-3.66-1.6-8.75-1.52m5.7,1.05c1.7,.38,2.68,.87,2.99,1.04,0,.04-.03,.11-.09,.19-.16,.19-.61,.52-1.96,.65-.69,.06-1.18,.28-1.53,.55l.59-2.44Zm4.41,7.32c-.15,.13-.27,.27-.37,.41l-.08-2.33c.24,.07,.42,.16,.55,.26,.36,.27,.41,.59,.41,.59h.02c.01,.16,0,.61-.52,1.06m.57-1.95c-.61-.55-1.51-.65-2.33-.59-.81,.06-1.63,.25-2.46,.17-.31-.02-.64-.1-.86-.33-.37-.36-.31-1.02,.02-1.43,.33-.41,.85-.6,1.36-.71,.51-.11,1.04-.14,1.54-.29,.5-.16,.99-.46,1.19-.94,.08-.21,.11-.43,.14-.65l.74-5.8c.12-.96,.24-1.93,.37-2.9l.37-2.9c.06-.48,.12-.96,.18-1.45,.02-.12,.04-.24,.05-.36,0-.05,0-.13,.02-.18,.03-.06,.06-.02,.11,.02,.21,.12,.43,.24,.63,.36,.11,.06,.21,.12,.32,.18-.47,5.93-.93,11.86-1.39,17.78m8.45,2.36c-.1-.14-.22-.28-.36-.41-.41-.34-.51-.69-.52-.9l.02-.16s.04-.33,.41-.6c.13-.1,.31-.19,.55-.26l-.09,2.33Zm4.82-3.29s-.07,.09-.1,.13c-.28,.28-.72,.38-1.14,.39-.77,.02-1.54-.15-2.31-.19-.77-.04-1.6,.06-2.2,.55-.45-5.66-.89-11.32-1.34-16.98-.02-.24-.04-.49,.06-.7,.17-.38,.61-.53,1.01-.64,.52,4.27,1.04,8.55,1.56,12.82,.09,.72,.21,1.53,.76,2.01,.67,.59,1.63,.49,2.44,.7,.75,.19,1.83,1.01,1.26,1.91m-.18-2c-.35-.27-.84-.49-1.54-.55-1.34-.13-1.8-.47-1.95-.65-.07-.08-.09-.15-.09-.19,.31-.17,1.29-.65,2.99-1.04l.59,2.44Zm5.1-3.48c-5.07-.09-7.81,1.04-8.74,1.52l-1.78-13.8c1.08-.67,2.19-1.44,3.34-2.3,1.75,5.92,6.06,12.82,7.19,14.58m-14.44-12.52c-2.89-1.41-6.26-3.71-9.7-6.92,.12-.33,.12-.72,.12-1.07,0-.53,0-1.02,.34-1.24,.06-.04,.13-.07,.19-.1,.12-.05,.26-.11,.38-.22,.13-.12,.2-.26,.26-.38,.05-.08,.09-.16,.13-.21,.17-.16,.44-.19,.75-.22,.38-.04,.8-.08,1.11-.41,.31-.29,.41-.74,.26-1.09-.03-.07-.08-.14-.12-.21-.03-.04-.06-.08-.07-.1-.06-.2-.02-.38,.12-.55,.3-.38,.94-.61,1.37-.57,.18,0,.37,.02,.56,.05,.5,.07,1.06,.15,1.53-.19,.18-.13,.3-.3,.42-.46,.14-.19,.26-.35,.42-.4,.1-.04,.24-.03,.39-.02,.28,0,.63,.01,.85-.29l.03-.05c.08-.17,.13-.19,.33-.17l3.07,.19c.19,0,.39,.02,.52,.11,.08,.05,.16,.16,.25,.26,.09,.12,.2,.26,.35,.36,.34,.23,.82,.24,1.32,.03,.13-.06,.26-.12,.38-.19,.21-.1,.4-.21,.62-.26,.38-.12,.98,.11,1.25,.47,.16,.21,.16,.41,.04,.57-.04,.03-.08,.06-.12,.08-.12,.09-.28,.19-.34,.41-.1,.36,.19,.67,.53,.79l.11,.04c.14,.04,.27,.09,.3,.12,.13,.33-.05,.63-.35,1.1-.2,.31-.41,.62-.46,.97v.04s0,.03,0,.03c.05,.39,.46,.53,.64,.59,.25,.08,.83,.33,.91,.78,0,.07,0,.14,.02,.22,0,.15,0,.32,.08,.5,.05,.11,.11,.19,.17,.27,.04,.05,.07,.1,.1,.14,.04,.27,.13,.5,.25,.68-3.3,3-6.53,5.15-9.31,6.5m8.64-3.17c2.65-2.17,5.4-4.88,8.06-8.14,2,2.44,8.41,9.26,17.41,9.26,2.59,0,5.4-.57,8.38-1.97-5.36,4.53-17.73,11.75-33.85,.84m45.03-18.22c-3.81,10.14-8.36,14.63-8.41,14.68-.2,.24-.61,.69-1.21,1.28-8.57,4.92-15.83,2.62-20.74-.62,2.68-2.41,5.21-4.98,7.52-7.78,2.54-3.05,4.82-6.35,6.73-9.82,1.94-3.52,3.53-7.19,4.75-10.97,2.48-7.58,3.51-15.55,3.81-23.52,.05-1.42,.09-2.84,.11-4.27l11.36-7.43c3.01,23.35-.45,39.22-3.93,48.47m9.12-49.77l-3.37-.73,.68-3.38,6.71-1.45-4.02,5.56Z" fill="#fff"/>
        <path d="M296.36,45.84c.38,.03,.74,.06,1.11,.09,.2,.02,.34,.06,.43,.11,.15,.09,.23,.24,.21,.46-.01,.19-.02,.37-.04,.56,0,.13,0,.22,0,.26l.03,.11c.19,.02,.39,.04,.57,.07v-.07c-.06-.04-.1-.12-.11-.23-.02-.06-.01-.16,0-.28,.01-.15,.03-.3,.04-.45,.02-.2,0-.34-.06-.44-.06-.09-.16-.17-.29-.24,.17-.06,.31-.15,.41-.27,.11-.11,.18-.27,.2-.47,.06-.38-.08-.66-.41-.85-.18-.09-.41-.15-.69-.18-.59-.05-1.16-.1-1.74-.13-.09,1.11-.16,2.22-.23,3.33,.16,0,.31,.02,.47,.04,.04-.48,.07-.96,.1-1.44m.13-1.51c.41,.03,.82,.06,1.23,.1,.17,.02,.31,.06,.41,.11,.18,.11,.25,.28,.23,.52-.03,.22-.12,.36-.26,.44-.15,.07-.33,.1-.56,.07-.38-.04-.75-.07-1.13-.09,.03-.38,.06-.76,.09-1.14" fill="#fff"/>
        <path d="M302.01,47.27c.2-.26,.34-.55,.42-.9,.1-.44,.06-.83-.12-1.17-.21-.38-.57-.61-1.07-.7-.5-.08-1.01-.16-1.5-.23-.17,1.1-.34,2.2-.5,3.3,.46,.07,.92,.14,1.39,.21,.59,.1,1.04-.07,1.39-.51m-2.24-.01c.13-.85,.27-1.68,.41-2.53,.3,.05,.59,.09,.88,.14,.4,.07,.67,.23,.8,.49,.14,.26,.15,.59,.07,.99-.02,.11-.06,.22-.1,.34-.09,.2-.19,.36-.3,.47-.16,.14-.32,.22-.52,.25-.1,.01-.24,0-.4-.03-.27-.04-.55-.08-.83-.13" fill="#fff"/>
        <path d="M305.27,48.43c-.68-.19-1.36-.37-2.05-.53,.09-.37,.18-.74,.27-1.1,.64,.15,1.29,.31,1.91,.49,.04-.13,.07-.25,.11-.37-.63-.18-1.28-.34-1.92-.5,.08-.33,.16-.66,.24-.99,.72,.17,1.43,.35,2.14,.55,.04-.13,.08-.26,.12-.39-.87-.25-1.75-.47-2.63-.66-.26,1.08-.52,2.17-.77,3.25,.83,.18,1.65,.4,2.47,.62,.04-.13,.08-.26,.12-.38" fill="#fff"/>
        <path d="M306.18,49.11c.28-.86,.56-1.71,.84-2.57,.32,1.04,.59,2.09,.83,3.13,.16,.06,.33,.12,.49,.18,.4-1.04,.81-2.08,1.22-3.12-.15-.05-.3-.11-.45-.16-.32,.84-.64,1.69-.96,2.53-.24-1.04-.51-2.09-.81-3.13-.19-.06-.38-.12-.57-.18-.35,1.06-.68,2.12-1.01,3.18,.14,.05,.29,.09,.43,.13" fill="#fff"/>
        <path d="M288.42,47.44c.16-.02,.32-.04,.48-.05l-.13-1.34c.39-.71,.82-1.41,1.26-2.11-.2,.01-.41,.03-.6,.04-.33,.56-.64,1.13-.94,1.7-.41-.49-.82-.98-1.25-1.47-.2,.02-.4,.05-.6,.08,.56,.59,1.11,1.19,1.64,1.8,.05,.45,.1,.89,.15,1.34" fill="#fff"/>
        <path d="M293.43,47.26c.57,0,1.02-.18,1.35-.56,.29-.32,.44-.73,.47-1.22,.02-.46-.07-.84-.31-1.15-.3-.39-.79-.59-1.45-.6-.64,0-1.13,.22-1.45,.64-.25,.33-.36,.72-.35,1.17,0,.5,.17,.91,.45,1.23,.32,.33,.75,.49,1.29,.49m-.88-2.76c.25-.24,.57-.36,.96-.36s.71,.13,.92,.37c.23,.25,.33,.56,.31,.96-.02,.38-.13,.69-.33,.98-.2,.28-.51,.42-.93,.41-.45,0-.77-.12-.97-.37-.2-.25-.31-.56-.32-.93,0-.46,.11-.81,.35-1.05" fill="#fff"/>
        <path d="M241.44,49.93c-.35-.95-.71-1.9-1.08-2.85-.16,.06-.33,.12-.49,.18,.43,1.07,.85,2.14,1.25,3.22,.71-.26,1.44-.5,2.16-.71-.04-.13-.08-.27-.13-.39-.58,.17-1.16,.36-1.72,.56" fill="#fff"/>
        <path d="M242.88,46.38c.36,1.1,.71,2.19,1.05,3.29,.15-.05,.31-.09,.47-.14-.33-1.1-.66-2.2-1.02-3.3-.17,.05-.33,.1-.5,.15" fill="#fff"/>
        <path d="M247.24,47.07c-.11-.07-.27-.11-.47-.14,.11-.08,.19-.17,.24-.25,.1-.17,.14-.35,.08-.56-.04-.18-.14-.34-.28-.45-.24-.2-.58-.24-1.03-.15-.54,.13-1.07,.26-1.61,.4,.34,1.1,.66,2.21,.97,3.32,.49-.13,.98-.25,1.47-.37,.47-.1,.77-.3,.92-.61,.12-.21,.14-.41,.09-.63-.06-.25-.19-.45-.38-.55m-2.16,.12c-.1-.34-.2-.68-.3-1.02,.3-.08,.6-.15,.9-.21,.22-.05,.39-.07,.51-.06,.22,.04,.36,.16,.41,.38,.05,.22,0,.39-.16,.52-.11,.08-.26,.14-.47,.19-.3,.07-.59,.14-.89,.21m2.02,.91c-.09,.19-.27,.32-.57,.38-.35,.09-.69,.16-1.03,.25-.1-.4-.21-.78-.32-1.17,.33-.08,.64-.16,.97-.24,.21-.05,.38-.06,.52-.04,.25,.04,.41,.18,.47,.43,.04,.14,.02,.28-.03,.39" fill="#fff"/>
        <path d="M250.99,47.45c-.74,.1-1.47,.21-2.19,.33-.07-.38-.15-.76-.23-1.15,.68-.11,1.36-.22,2.04-.32-.02-.13-.04-.26-.06-.39-.69,.09-1.37,.2-2.06,.32-.07-.35-.14-.68-.21-1.03,.75-.13,1.51-.25,2.27-.35-.02-.14-.04-.28-.07-.42-.94,.12-1.87,.27-2.8,.44,.26,1.13,.5,2.25,.72,3.38,.88-.16,1.75-.3,2.65-.42-.02-.13-.04-.27-.06-.41" fill="#fff"/>
        <path d="M252.45,47.61c-.06-.48-.12-.97-.18-1.46,.38-.04,.77-.07,1.16-.11,.21-.01,.36,0,.47,.03,.17,.07,.28,.21,.31,.43,.03,.19,.06,.38,.09,.57,.01,.13,.02,.23,.04,.27l.05,.12c.2-.01,.41-.03,.61-.04v-.08c-.09-.02-.14-.09-.19-.2-.02-.06-.04-.16-.05-.29-.02-.15-.04-.31-.06-.46-.02-.2-.07-.34-.15-.42-.08-.09-.2-.15-.35-.2,.16-.09,.28-.2,.36-.34,.09-.13,.12-.3,.1-.52-.04-.39-.24-.65-.62-.77-.2-.07-.45-.09-.75-.07-.6,.05-1.21,.11-1.8,.18,.17,1.13,.33,2.28,.48,3.41,.16-.01,.33-.03,.49-.05m.88-3.14c.18-.02,.33,0,.44,.04,.21,.08,.33,.24,.36,.49,.02,.23-.04,.39-.17,.48-.13,.1-.32,.16-.56,.18-.4,.03-.79,.07-1.19,.11-.05-.39-.1-.78-.16-1.17,.42-.04,.85-.09,1.28-.12" fill="#fff"/>
        <path d="M256.11,44.31c.05,1.01,.1,2.02,.14,3.04,.17,0,.34,0,.51,0-.02-1.01-.06-2.02-.11-3.03,.44,0,.88,0,1.33,0,0-.13,0-.27-.01-.41-1.07-.02-2.14,0-3.2,.06,0,.13,.02,.27,.04,.41,.44-.02,.87-.03,1.31-.04" fill="#fff"/>
        <path d="M258.23,47.32c.13-.34,.27-.68,.41-1.02,.5,.02,1,.04,1.5,.07,.12,.36,.23,.71,.34,1.06,.18,.02,.37,.03,.55,.04-.38-1.19-.81-2.37-1.28-3.54-.2,0-.41-.02-.6-.03-.5,1.13-.98,2.27-1.44,3.42,.17,0,.34,0,.52,0m1.2-2.9c.2,.52,.38,1.03,.56,1.56-.4-.02-.8-.04-1.2-.05,.21-.5,.42-1.01,.64-1.5" fill="#fff"/>
        <path d="M264.49,47.08c.19-.28,.31-.59,.35-.95,.07-.48-.02-.88-.26-1.22-.27-.38-.68-.61-1.23-.67-.55-.06-1.09-.12-1.63-.17-.06,1.15-.12,2.3-.21,3.45,.5,.05,1,.1,1.51,.16,.64,.08,1.13-.12,1.46-.59m-2.43,.08c.07-.88,.14-1.76,.19-2.65,.32,.04,.64,.07,.96,.11,.44,.05,.74,.21,.91,.47,.18,.27,.24,.61,.19,1.04-.01,.11-.04,.23-.08,.35-.07,.21-.16,.38-.28,.5-.15,.16-.33,.26-.53,.29-.11,.02-.26,.02-.43,0-.31-.04-.61-.07-.92-.1" fill="#fff"/>
        <path d="M280.02,107.42h-.05v-.31h-.5v-.86h.94v-2.24h-.95v-.65c0-.18-.07-.33-.21-.42-.15-.09-.33-.09-.48-.01-.15,.09-.23,.24-.22,.41v.67h-1.59v-.66c0-.18-.09-.33-.24-.41-.15-.08-.34-.08-.48,0-.14,.09-.22,.24-.21,.4v.67h-1.59v-.66c0-.18-.09-.33-.23-.41-.15-.08-.34-.08-.48,0-.14,.09-.22,.24-.21,.4v.67h-.94v2.24h.94v.86h-.63v.31h-.06l-.63-.79h-2.39l1.08,1.59,1.33,.86,4.18,.03h.02l4.18-.03,1.33-.86,1.09-1.59h-2.39l-.63,.79Zm-1.73-2.87h1.6v1.18h-1.6v-1.18Zm.27,1.71v.86h-.62v.35h-.58s0-.35,0-.35h-.39v-.86h1.59Zm-2.86-1.71h.17c.36,0,.55-.12,.63-.19,.09,.07,.27,.19,.64,.19h.17v1.18h-1.61v-1.18Zm.34,1.71v.86h-.54v.37h-.58v-.37h-.47v-.86h1.59Zm-2.92-.53v-1.18h1.59v1.18h-1.59Zm8.92,1.43l-.49,.72-1.08,.68-4.04,.03-4.04-.03-1.08-.68-.49-.72h1.13l.62,.79,.85,.02v-.32h.96v.34l1.64,.04v-.38h.81v.38l1.64-.04v-.34h.96v.32l.85-.02,.62-.79h1.13Z" fill="#fff"/>
        <path d="M280.02,122.32h-.05v-.31h-.5v-.86h.94v-2.24h-.95v-.65c0-.18-.07-.33-.21-.42-.15-.09-.33-.09-.48-.01-.15,.09-.23,.24-.22,.41v.67h-1.59v-.66c0-.18-.09-.33-.24-.41-.15-.08-.34-.08-.48,0-.14,.09-.22,.24-.21,.4v.67h-1.59v-.66c0-.18-.09-.33-.23-.41-.15-.08-.34-.08-.48,0-.14,.09-.22,.24-.21,.4v.67h-.94v2.24h.94v.86h-.63v.31h-.06l-.63-.79h-2.39l1.08,1.59,1.33,.86,4.18,.03h.02l4.18-.03,1.33-.86,1.09-1.59h-2.39l-.63,.79Zm-1.73-2.87h1.6v1.18h-1.6v-1.18Zm.27,1.71v.86h-.62v.35h-.58s0-.35,0-.35h-.39v-.86h1.59Zm-2.86-1.71h.17c.36,0,.55-.12,.63-.19,.09,.07,.27,.19,.64,.19h.17v1.18h-1.61v-1.18Zm.34,1.71v.86h-.54v.37h-.58v-.37h-.47v-.86h1.59Zm-2.92-.53v-1.18h1.59v1.18h-1.59Zm8.92,1.43l-.49,.72-1.08,.68-4.04,.03-4.04-.03-1.08-.68-.49-.72h1.13l.62,.79,.85,.02v-.32h.96v.34l1.64,.04v-.38h.81v.38l1.64-.04v-.34h.96v.32l.85-.02,.62-.79h1.13Z" fill="#fff"/>
        <path d="M267.78,41.88h0s0-.01,0,0" fill="#fff"/>
      </g>
      <g>
        <path d="M97.26,223.61v-46.66h2.38l20.06,38.26h-1.85l19.92-38.26h2.38v46.66h-2.58v-44.02h1.59l-19.19,36.73h-2.32l-19.46-36.8h1.65v44.08h-2.58Z" fill="#fff"/>
        <path d="M151.54,182.64v-4.17h4.24v4.17h-4.24Zm.73,40.97v-32.04h2.78v32.04h-2.78Z" fill="#fff"/>
        <path d="M166.3,223.61v-32.04h2.71v7.81h-.73c.88-2.78,2.4-4.86,4.57-6.25,2.16-1.39,4.65-2.08,7.48-2.08,2.56,0,4.69,.44,6.39,1.32,1.7,.88,2.97,2.23,3.81,4.04,.84,1.81,1.26,4.08,1.26,6.82v20.39h-2.78v-20.12c0-2.25-.3-4.1-.89-5.56s-1.53-2.54-2.81-3.24c-1.28-.71-2.94-1.06-4.96-1.06-2.25,0-4.23,.47-5.92,1.42-1.7,.95-3.01,2.29-3.94,4.04-.93,1.74-1.39,3.78-1.39,6.12v18.4h-2.78Z" fill="#fff"/>
        <path d="M202.17,182.64v-4.17h4.24v4.17h-4.24Zm.73,40.97v-32.04h2.78v32.04h-2.78Z" fill="#fff"/>
        <path d="M226.92,224.14c-1.5,0-2.99-.17-4.47-.5-1.48-.33-2.85-.82-4.1-1.46-1.26-.64-2.35-1.4-3.28-2.28l1.32-2.25c1.06,.93,2.17,1.68,3.34,2.25,1.17,.57,2.37,.99,3.61,1.26,1.23,.26,2.49,.4,3.77,.4,2.87,0,5.06-.55,6.59-1.65,1.52-1.1,2.28-2.6,2.28-4.5,0-1.5-.5-2.68-1.49-3.54-.99-.86-2.59-1.56-4.8-2.08l-5.49-1.32c-2.78-.66-4.82-1.68-6.12-3.04-1.3-1.37-1.95-3.13-1.95-5.29,0-1.81,.47-3.4,1.42-4.77,.95-1.37,2.29-2.43,4.04-3.18,1.74-.75,3.76-1.12,6.06-1.12,1.46,0,2.85,.17,4.17,.5,1.32,.33,2.55,.82,3.67,1.46,1.12,.64,2.06,1.42,2.81,2.35l-1.32,2.25c-.84-.88-1.77-1.62-2.78-2.22-1.02-.6-2.07-1.04-3.18-1.32-1.1-.29-2.25-.43-3.44-.43-2.69,0-4.79,.59-6.29,1.75-1.5,1.17-2.25,2.73-2.25,4.67,0,1.5,.46,2.71,1.39,3.64s2.4,1.63,4.43,2.12l5.49,1.32c2.87,.71,5.01,1.7,6.42,2.98,1.41,1.28,2.12,3,2.12,5.16,0,1.81-.5,3.38-1.49,4.7-.99,1.32-2.38,2.35-4.17,3.08s-3.9,1.09-6.32,1.09Z" fill="#fff"/>
        <path d="M259.62,224.14c-3.35,0-5.87-.95-7.55-2.85-1.68-1.9-2.52-4.57-2.52-8.01v-19.33h-6.42v-2.38h6.42v-9.99h2.78v9.99h10.52v2.38h-10.52v18.73c0,2.87,.57,5.06,1.72,6.59,1.15,1.52,3.07,2.28,5.76,2.28,.79,0,1.56-.1,2.28-.3s1.33-.39,1.82-.56l.66,2.32c-.4,.26-1.1,.52-2.12,.76-1.02,.24-1.96,.36-2.85,.36Z" fill="#fff"/>
        <path d="M282.85,224.14c-3.18,0-5.91-.66-8.21-1.99-2.29-1.32-4.07-3.21-5.33-5.66-1.26-2.45-1.89-5.37-1.89-8.77s.63-6.28,1.89-8.77c1.26-2.49,3-4.43,5.23-5.82,2.23-1.39,4.8-2.08,7.71-2.08s5.14,.62,7.08,1.85c1.94,1.24,3.43,2.99,4.47,5.26,1.04,2.27,1.56,5.02,1.56,8.24v1.72h-26.14v-2.45h24.69l-1.13,.79c0-4.01-.88-7.17-2.65-9.46-1.77-2.29-4.41-3.44-7.94-3.44-2.56,0-4.73,.61-6.52,1.82-1.79,1.21-3.13,2.86-4.04,4.93-.9,2.07-1.36,4.43-1.36,7.08v.33c0,2.91,.48,5.41,1.46,7.48,.97,2.07,2.39,3.65,4.27,4.73,1.88,1.08,4.11,1.62,6.72,1.62,1.99,0,3.85-.32,5.59-.96,1.74-.64,3.48-1.71,5.2-3.21l1.32,2.25c-1.37,1.37-3.13,2.46-5.29,3.28-2.16,.82-4.39,1.22-6.69,1.22Z" fill="#fff"/>
        <path d="M304.16,223.61v-32.04h2.71v7.48h-.66c.88-2.6,2.27-4.56,4.17-5.86,1.9-1.3,4.39-2.06,7.48-2.28l1.39-.13,.33,2.52-2.25,.26c-3.27,.31-5.81,1.41-7.64,3.31-1.83,1.9-2.75,4.41-2.75,7.55v19.19h-2.78Z" fill="#fff"/>
        <path d="M325.08,182.64v-4.17h4.24v4.17h-4.24Zm.73,40.97v-32.04h2.78v32.04h-2.78Z" fill="#fff"/>
        <path d="M352.02,224.14c-2.91,0-5.44-.68-7.58-2.05-2.14-1.37-3.8-3.29-4.96-5.76-1.17-2.47-1.75-5.38-1.75-8.74s.58-6.27,1.75-8.74c1.17-2.47,2.82-4.39,4.96-5.76,2.14-1.37,4.67-2.05,7.58-2.05s5.44,.68,7.58,2.05c2.14,1.37,3.79,3.29,4.96,5.76,1.17,2.47,1.75,5.38,1.75,8.74s-.58,6.27-1.75,8.74c-1.17,2.47-2.82,4.39-4.96,5.76-2.14,1.37-4.67,2.05-7.58,2.05Zm0-2.58c3.53,0,6.32-1.22,8.37-3.67,2.05-2.45,3.08-5.88,3.08-10.29s-1.03-7.84-3.08-10.29c-2.05-2.45-4.84-3.67-8.37-3.67s-6.27,1.22-8.34,3.67c-2.07,2.45-3.11,5.88-3.11,10.29s1.04,7.84,3.11,10.29c2.07,2.45,4.85,3.67,8.34,3.67Z" fill="#fff"/>
        <path d="M403.84,224.14c-2.87,0-5.37-.67-7.51-2.02-2.14-1.35-3.8-3.27-4.96-5.76-1.17-2.49-1.75-5.42-1.75-8.77s.57-6.33,1.72-8.8c1.15-2.47,2.79-4.38,4.93-5.73,2.14-1.35,4.67-2.02,7.58-2.02,3.09,0,5.71,.79,7.88,2.38,2.16,1.59,3.6,3.75,4.3,6.49h-.73v-22.97h2.78v46.66h-2.78v-8.34h.73c-.71,2.69-2.14,4.84-4.3,6.45-2.16,1.61-4.79,2.42-7.88,2.42Zm.07-2.58c3.53,0,6.32-1.22,8.37-3.67,2.05-2.45,3.08-5.88,3.08-10.29s-1.03-7.84-3.08-10.29c-2.05-2.45-4.84-3.67-8.37-3.67s-6.27,1.22-8.34,3.67c-2.07,2.45-3.11,5.88-3.11,10.29s1.04,7.84,3.11,10.29c2.07,2.45,4.85,3.67,8.34,3.67Z" fill="#fff"/>
        <path d="M442.63,224.14c-3.18,0-5.91-.66-8.21-1.99-2.29-1.32-4.07-3.21-5.33-5.66-1.26-2.45-1.89-5.37-1.89-8.77s.63-6.28,1.89-8.77c1.26-2.49,3-4.43,5.23-5.82,2.23-1.39,4.8-2.08,7.71-2.08s5.14,.62,7.08,1.85c1.94,1.24,3.43,2.99,4.47,5.26,1.04,2.27,1.56,5.02,1.56,8.24v1.72h-26.14v-2.45h24.69l-1.13,.79c0-4.01-.88-7.17-2.65-9.46-1.77-2.29-4.41-3.44-7.94-3.44-2.56,0-4.73,.61-6.52,1.82-1.79,1.21-3.13,2.86-4.04,4.93-.9,2.07-1.36,4.43-1.36,7.08v.33c0,2.91,.48,5.41,1.46,7.48,.97,2.07,2.39,3.65,4.27,4.73,1.88,1.08,4.11,1.62,6.72,1.62,1.99,0,3.85-.32,5.59-.96,1.74-.64,3.48-1.71,5.2-3.21l1.32,2.25c-1.37,1.37-3.13,2.46-5.29,3.28-2.16,.82-4.39,1.22-6.69,1.22Z" fill="#fff"/>
      </g>
      <g>
        <path d="M0,289.8v-46.66H28.06v2.58H2.78v19.13H26.74v2.58H2.78v19.79H28.06v2.58H0Z" fill="#fff"/>
        <path d="M49.11,290.33c-2.87,0-5.37-.67-7.51-2.02-2.14-1.35-3.8-3.27-4.96-5.76-1.17-2.49-1.75-5.42-1.75-8.77s.57-6.33,1.72-8.8c1.15-2.47,2.79-4.38,4.93-5.73,2.14-1.35,4.67-2.02,7.58-2.02,3.09,0,5.71,.79,7.88,2.38,2.16,1.59,3.6,3.75,4.3,6.49h-.73v-22.97h2.78v46.66h-2.78v-8.34h.73c-.71,2.69-2.14,4.84-4.3,6.45-2.16,1.61-4.79,2.42-7.88,2.42Zm.07-2.58c3.53,0,6.32-1.22,8.37-3.67,2.05-2.45,3.08-5.88,3.08-10.29s-1.03-7.84-3.08-10.29c-2.05-2.45-4.84-3.67-8.37-3.67s-6.27,1.22-8.34,3.67c-2.07,2.45-3.11,5.88-3.11,10.29s1.04,7.84,3.11,10.29c2.07,2.45,4.85,3.67,8.34,3.67Z" fill="#fff"/>
        <path d="M85.78,290.33c-2.52,0-4.61-.46-6.29-1.39-1.68-.93-2.94-2.29-3.77-4.1-.84-1.81-1.26-4.06-1.26-6.75v-20.32h2.78v20.06c0,2.25,.3,4.11,.89,5.59,.6,1.48,1.53,2.57,2.81,3.28,1.28,.71,2.89,1.06,4.83,1.06,2.16,0,4.05-.49,5.66-1.46,1.61-.97,2.88-2.33,3.81-4.07,.93-1.74,1.39-3.78,1.39-6.12v-18.33h2.78v32.04h-2.71v-8.01h.79c-.84,2.78-2.32,4.9-4.44,6.35-2.12,1.46-4.54,2.18-7.28,2.18Z" fill="#fff"/>
        <path d="M123.17,290.33c-3.04,0-5.66-.71-7.84-2.12-2.18-1.41-3.86-3.38-5.03-5.89-1.17-2.52-1.75-5.45-1.75-8.8s.58-6.24,1.75-8.67c1.17-2.43,2.85-4.3,5.03-5.63,2.18-1.32,4.8-1.99,7.84-1.99,1.94,0,3.84,.39,5.69,1.16,1.85,.77,3.4,1.84,4.63,3.21l-1.32,2.18c-1.41-1.41-2.91-2.43-4.5-3.04-1.59-.62-3.11-.93-4.57-.93-3.75,0-6.64,1.19-8.67,3.57-2.03,2.38-3.04,5.78-3.04,10.19s1.01,7.88,3.04,10.39c2.03,2.52,4.92,3.77,8.67,3.77,1.46,0,2.98-.31,4.57-.93,1.59-.62,3.09-1.63,4.5-3.04l1.32,2.18c-1.24,1.37-2.8,2.44-4.7,3.21-1.9,.77-3.77,1.16-5.63,1.16Z" fill="#fff"/>
        <path d="M150.44,290.33c-2.07,0-3.95-.42-5.63-1.26-1.68-.84-3-1.97-3.97-3.41-.97-1.43-1.46-3.03-1.46-4.8,0-2.38,.58-4.25,1.75-5.59,1.17-1.35,3.18-2.29,6.02-2.85,2.85-.55,6.76-.83,11.75-.83h2.71v2.45h-2.58c-3.27,0-5.98,.1-8.14,.3-2.16,.2-3.86,.55-5.1,1.06-1.24,.51-2.11,1.18-2.61,2.02-.51,.84-.76,1.9-.76,3.18,0,2.12,.74,3.85,2.22,5.2,1.48,1.35,3.47,2.02,5.99,2.02,2.03,0,3.81-.5,5.33-1.49,1.52-.99,2.72-2.34,3.61-4.04,.88-1.7,1.32-3.63,1.32-5.79v-7.55c0-3.18-.62-5.49-1.85-6.95-1.24-1.46-3.22-2.18-5.96-2.18-1.99,0-3.85,.29-5.59,.86-1.74,.57-3.56,1.5-5.46,2.78l-1.32-2.38c1.15-.79,2.39-1.48,3.74-2.05,1.35-.57,2.75-1.01,4.2-1.32,1.46-.31,2.89-.46,4.3-.46,2.43,0,4.43,.42,6.02,1.26,1.59,.84,2.77,2.12,3.54,3.84,.77,1.72,1.16,3.93,1.16,6.62v20.85h-2.71v-8.01h.73c-.44,1.77-1.19,3.29-2.25,4.57-1.06,1.28-2.35,2.26-3.87,2.95s-3.23,1.03-5.13,1.03Z" fill="#fff"/>
        <path d="M187.31,290.33c-3.04,0-5.66-.71-7.84-2.12-2.18-1.41-3.86-3.38-5.03-5.89-1.17-2.52-1.75-5.45-1.75-8.8s.58-6.24,1.75-8.67c1.17-2.43,2.85-4.3,5.03-5.63,2.18-1.32,4.8-1.99,7.84-1.99,1.94,0,3.84,.39,5.69,1.16,1.85,.77,3.4,1.84,4.63,3.21l-1.32,2.18c-1.41-1.41-2.91-2.43-4.5-3.04-1.59-.62-3.11-.93-4.57-.93-3.75,0-6.64,1.19-8.67,3.57-2.03,2.38-3.04,5.78-3.04,10.19s1.01,7.88,3.04,10.39c2.03,2.52,4.92,3.77,8.67,3.77,1.46,0,2.98-.31,4.57-.93,1.59-.62,3.09-1.63,4.5-3.04l1.32,2.18c-1.24,1.37-2.8,2.44-4.7,3.21-1.9,.77-3.77,1.16-5.63,1.16Z" fill="#fff"/>
        <path d="M204.19,248.83v-4.17h4.24v4.17h-4.24Zm.73,40.97v-32.04h2.78v32.04h-2.78Z" fill="#fff"/>
        <path d="M231.12,290.33c-2.91,0-5.44-.68-7.58-2.05-2.14-1.37-3.8-3.29-4.96-5.76-1.17-2.47-1.75-5.38-1.75-8.74s.58-6.27,1.75-8.74c1.17-2.47,2.82-4.39,4.96-5.76,2.14-1.37,4.67-2.05,7.58-2.05s5.44,.68,7.58,2.05c2.14,1.37,3.79,3.29,4.96,5.76,1.17,2.47,1.75,5.38,1.75,8.74s-.58,6.27-1.75,8.74c-1.17,2.47-2.82,4.39-4.96,5.76-2.14,1.37-4.67,2.05-7.58,2.05Zm0-2.58c3.53,0,6.32-1.22,8.37-3.67,2.05-2.45,3.08-5.88,3.08-10.29s-1.03-7.84-3.08-10.29c-2.05-2.45-4.84-3.67-8.37-3.67s-6.27,1.22-8.34,3.67c-2.07,2.45-3.11,5.88-3.11,10.29s1.04,7.84,3.11,10.29c2.07,2.45,4.85,3.67,8.34,3.67Zm-1.19-34.29l6.88-13.24h3.57l-8.07,13.24h-2.38Z" fill="#fff"/>
        <path d="M254.55,289.8v-32.04h2.71v7.81h-.73c.88-2.78,2.4-4.86,4.57-6.25,2.16-1.39,4.65-2.08,7.48-2.08,2.56,0,4.69,.44,6.39,1.32,1.7,.88,2.97,2.23,3.81,4.04,.84,1.81,1.26,4.08,1.26,6.82v20.39h-2.78v-20.12c0-2.25-.3-4.1-.89-5.56s-1.53-2.54-2.81-3.24c-1.28-.71-2.94-1.06-4.96-1.06-2.25,0-4.23,.47-5.92,1.42-1.7,.95-3.01,2.29-3.94,4.04-.93,1.74-1.39,3.78-1.39,6.12v18.4h-2.78Z" fill="#fff"/>
        <path d="M308.17,289.8v-46.66h2.32l32.3,43.88h-1.46v-43.88h2.58v46.66h-2.25l-32.3-43.88h1.39v43.88h-2.58Z" fill="#fff"/>
        <path d="M365.55,290.33c-2.07,0-3.95-.42-5.63-1.26-1.68-.84-3-1.97-3.97-3.41-.97-1.43-1.46-3.03-1.46-4.8,0-2.38,.58-4.25,1.75-5.59,1.17-1.35,3.18-2.29,6.02-2.85,2.85-.55,6.76-.83,11.75-.83h2.71v2.45h-2.58c-3.27,0-5.98,.1-8.14,.3-2.16,.2-3.86,.55-5.1,1.06-1.24,.51-2.11,1.18-2.61,2.02-.51,.84-.76,1.9-.76,3.18,0,2.12,.74,3.85,2.22,5.2,1.48,1.35,3.47,2.02,5.99,2.02,2.03,0,3.81-.5,5.33-1.49,1.52-.99,2.72-2.34,3.61-4.04,.88-1.7,1.32-3.63,1.32-5.79v-7.55c0-3.18-.62-5.49-1.85-6.95-1.24-1.46-3.22-2.18-5.96-2.18-1.99,0-3.85,.29-5.59,.86-1.74,.57-3.56,1.5-5.46,2.78l-1.32-2.38c1.15-.79,2.39-1.48,3.74-2.05,1.35-.57,2.75-1.01,4.2-1.32,1.46-.31,2.89-.46,4.3-.46,2.43,0,4.43,.42,6.02,1.26,1.59,.84,2.77,2.12,3.54,3.84,.77,1.72,1.16,3.93,1.16,6.62v20.85h-2.71v-8.01h.73c-.44,1.77-1.19,3.29-2.25,4.57-1.06,1.28-2.35,2.26-3.87,2.95s-3.23,1.03-5.13,1.03Z" fill="#fff"/>
        <path d="M402.42,290.33c-3.04,0-5.66-.71-7.84-2.12-2.18-1.41-3.86-3.38-5.03-5.89-1.17-2.52-1.75-5.45-1.75-8.8s.58-6.24,1.75-8.67c1.17-2.43,2.85-4.3,5.03-5.63,2.18-1.32,4.8-1.99,7.84-1.99,1.94,0,3.84,.39,5.69,1.16,1.85,.77,3.4,1.84,4.63,3.21l-1.32,2.18c-1.41-1.41-2.91-2.43-4.5-3.04-1.59-.62-3.11-.93-4.57-.93-3.75,0-6.64,1.19-8.67,3.57-2.03,2.38-3.04,5.78-3.04,10.19s1.01,7.88,3.04,10.39c2.03,2.52,4.92,3.77,8.67,3.77,1.46,0,2.98-.31,4.57-.93,1.59-.62,3.09-1.63,4.5-3.04l1.32,2.18c-1.24,1.37-2.8,2.44-4.7,3.21-1.9,.77-3.77,1.16-5.63,1.16Z" fill="#fff"/>
        <path d="M419.29,248.83v-4.17h4.24v4.17h-4.24Zm.73,40.97v-32.04h2.78v32.04h-2.78Z" fill="#fff"/>
        <path d="M446.23,290.33c-2.91,0-5.44-.68-7.58-2.05-2.14-1.37-3.8-3.29-4.96-5.76-1.17-2.47-1.75-5.38-1.75-8.74s.58-6.27,1.75-8.74c1.17-2.47,2.82-4.39,4.96-5.76,2.14-1.37,4.67-2.05,7.58-2.05s5.44,.68,7.58,2.05c2.14,1.37,3.79,3.29,4.96,5.76,1.17,2.47,1.75,5.38,1.75,8.74s-.58,6.27-1.75,8.74c-1.17,2.47-2.82,4.39-4.96,5.76-2.14,1.37-4.67,2.05-7.58,2.05Zm0-2.58c3.53,0,6.32-1.22,8.37-3.67,2.05-2.45,3.08-5.88,3.08-10.29s-1.03-7.84-3.08-10.29c-2.05-2.45-4.84-3.67-8.37-3.67s-6.27,1.22-8.34,3.67c-2.07,2.45-3.11,5.88-3.11,10.29s1.04,7.84,3.11,10.29c2.07,2.45,4.85,3.67,8.34,3.67Z" fill="#fff"/>
        <path d="M469.66,289.8v-32.04h2.71v7.81h-.73c.88-2.78,2.4-4.86,4.57-6.25,2.16-1.39,4.65-2.08,7.48-2.08,2.56,0,4.69,.44,6.39,1.32,1.7,.88,2.97,2.23,3.81,4.04,.84,1.81,1.26,4.08,1.26,6.82v20.39h-2.78v-20.12c0-2.25-.3-4.1-.89-5.56s-1.53-2.54-2.81-3.24c-1.28-.71-2.94-1.06-4.96-1.06-2.25,0-4.23,.47-5.92,1.42-1.7,.95-3.01,2.29-3.94,4.04-.93,1.74-1.39,3.78-1.39,6.12v18.4h-2.78Z" fill="#fff"/>
        <path d="M515.93,290.33c-2.07,0-3.95-.42-5.63-1.26-1.68-.84-3-1.97-3.97-3.41-.97-1.43-1.46-3.03-1.46-4.8,0-2.38,.58-4.25,1.75-5.59,1.17-1.35,3.18-2.29,6.02-2.85,2.85-.55,6.76-.83,11.75-.83h2.71v2.45h-2.58c-3.27,0-5.98,.1-8.14,.3-2.16,.2-3.86,.55-5.1,1.06-1.24,.51-2.11,1.18-2.61,2.02-.51,.84-.76,1.9-.76,3.18,0,2.12,.74,3.85,2.22,5.2,1.48,1.35,3.47,2.02,5.99,2.02,2.03,0,3.81-.5,5.33-1.49,1.52-.99,2.72-2.34,3.61-4.04,.88-1.7,1.32-3.63,1.32-5.79v-7.55c0-3.18-.62-5.49-1.85-6.95-1.24-1.46-3.22-2.18-5.96-2.18-1.99,0-3.85,.29-5.59,.86-1.74,.57-3.56,1.5-5.46,2.78l-1.32-2.38c1.15-.79,2.39-1.48,3.74-2.05,1.35-.57,2.75-1.01,4.2-1.32,1.46-.31,2.89-.46,4.3-.46,2.43,0,4.43,.42,6.02,1.26,1.59,.84,2.77,2.12,3.54,3.84,.77,1.72,1.16,3.93,1.16,6.62v20.85h-2.71v-8.01h.73c-.44,1.77-1.19,3.29-2.25,4.57-1.06,1.28-2.35,2.26-3.87,2.95s-3.23,1.03-5.13,1.03Z" fill="#fff"/>
        <path d="M549.02,290.33c-2.78,0-4.93-.89-6.45-2.68-1.52-1.79-2.28-4.29-2.28-7.51v-37h2.78v36.54c0,1.77,.23,3.25,.7,4.47,.46,1.21,1.16,2.12,2.08,2.71,.93,.6,2.07,.89,3.44,.89,.57,0,1.11-.03,1.62-.1,.51-.07,1-.17,1.49-.3l-.2,2.58c-.57,.13-1.13,.23-1.65,.3-.53,.07-1.04,.1-1.52,.1Z" fill="#fff"/>
      </g>
      <g>
        <rect x="204.79" y="328.54" width="71.44" height="12.39" fill="#e6c03b"/>
        <rect x="276.23" y="328.54" width="35.69" height="12.39" fill="#2f3d72"/>
        <rect x="311.92" y="328.54" width="35.69" height="12.39" fill="#ad262e"/>
      </g>
    </g>
  </g>
</svg>